<svg width="78" height="92" viewBox="0 0 78 92" fill="none" xmlns="http://www.w3.org/2000/svg">
<g clip-path="url(#clip0_57_83)">
<path d="M32.7808 82.0551V80.1051C32.7808 73.6507 27.8819 68.4053 21.8538 68.4053H10.9269C4.8989 68.4053 0 73.6507 0 80.1051V82.0551H32.7808Z" fill="#7EB3FF"/>
<path d="M16.3904 62.5553C20.4136 62.5553 23.675 59.0631 23.675 54.7554C23.675 50.4476 20.4136 46.9554 16.3904 46.9554C12.3672 46.9554 9.10577 50.4476 9.10577 54.7554C9.10577 59.0631 12.3672 62.5553 16.3904 62.5553Z" fill="#7EB3FF"/>
<path d="M78 82.0551V80.1051C78 73.6507 73.1011 68.4053 67.0731 68.4053H56.1462C50.1181 68.4053 45.2192 73.6507 45.2192 80.1051V82.0551H78Z" fill="#7EB3FF"/>
<path d="M61.6096 62.5553C65.6328 62.5553 68.8942 59.0631 68.8942 54.7554C68.8942 50.4476 65.6328 46.9554 61.6096 46.9554C57.5864 46.9554 54.325 50.4476 54.325 54.7554C54.325 59.0631 57.5864 62.5553 61.6096 62.5553Z" fill="#7EB3FF"/>
<path d="M55.7637 91.9999V90.05C55.7637 83.5955 50.8648 78.3501 44.8368 78.3501H33.9099C27.8819 78.3501 22.983 83.5955 22.983 90.05V91.9999H55.7637Z" fill="#0561FC"/>
<path d="M39.3734 72.5002C43.3965 72.5002 46.658 69.0081 46.658 64.7003C46.658 60.3925 43.3965 56.9004 39.3734 56.9004C35.3502 56.9004 32.0887 60.3925 32.0887 64.7003C32.0887 69.0081 35.3502 72.5002 39.3734 72.5002Z" fill="#0561FC"/>
<path d="M65.7254 0H34.4016C28.8898 0 24.4217 4.78423 24.4217 10.6859V30.0687C24.4217 35.9703 28.8898 40.7546 34.4016 40.7546H65.7254C71.2372 40.7546 75.7053 35.9703 75.7053 30.0687V10.6859C75.7053 4.78423 71.2372 0 65.7254 0Z" fill="#7EB3FF"/>
<path d="M34.5655 29.7177V50.4654L49.0983 34.9046C49.0983 34.9046 38.6085 29.7177 34.5655 29.7177Z" fill="#7EB3FF"/>
<path d="M39.8468 17.9983L45.4924 24.0432L56.9293 11.5438" stroke="white" stroke-width="2"/>
</g>
<defs>
<clipPath id="clip0_57_83">
<rect width="78" height="92" fill="white"/>
</clipPath>
</defs>
</svg>
