<svg width="78" height="92" viewBox="0 0 78 92" fill="none" xmlns="http://www.w3.org/2000/svg">
<g clip-path="url(#clip0_57_76)">
<path d="M64.7288 37.7223C67.6113 20.0065 55.5522 3.31392 37.7939 0.438248C20.0356 -2.43742 3.30287 9.59283 0.420296 27.3086C-2.46228 45.0243 9.59687 61.7169 27.3552 64.5926C45.1134 67.4683 61.8462 55.438 64.7288 37.7223Z" fill="#C5E1F9"/>
<path d="M19.7057 32.5948L29.2255 42.0918L48.559 22.4333" stroke="#0561FC" stroke-width="3.14"/>
<path d="M74.0824 84.1835C74.0824 84.1835 78 78.5166 78 76.367V60.7341C78 58.5845 76.3742 57.6466 74.0824 56.8258L58.4119 52.9176V34.3534C58.4119 31.6568 56.218 29.4681 53.5148 29.4681C50.8117 29.4681 48.6178 31.6568 48.6178 34.3534V61.8479L43.9754 57.2167C42.3496 55.5947 39.7248 55.5947 38.099 57.2167C36.4731 58.8386 36.8845 61.0663 38.099 63.0986L50.5962 84.2031" fill="#7EB3FF"/>
<path d="M46.659 92V84.1835H78V92" fill="#0561FC"/>
</g>
<defs>
<clipPath id="clip0_57_76">
<rect width="78" height="92" fill="white"/>
</clipPath>
</defs>
</svg>
