<svg width="82" height="82" viewBox="0 0 82 82" fill="none" xmlns="http://www.w3.org/2000/svg">
<path d="M35.1697 64.9847L35.0523 73.5452L31.6586 76.9389L26.8206 66.3117" stroke="#484751" stroke-width="2.63" stroke-miterlimit="10" stroke-linecap="square"/>
<path d="M22.9453 46.7599L8.45471 46.9478L5.06104 50.3414L10.8033 52.9601" stroke="#484751" stroke-width="2.63" stroke-miterlimit="10" stroke-linecap="square"/>
<path d="M45.6911 14.7021L34.1714 12.9054L36.7549 10.322C37.5651 9.51173 37.5651 8.20828 36.7549 7.40977L35.287 5.94192C34.4768 5.13167 33.1733 5.13167 32.3748 5.94192L26.5973 11.7194L6.21183 8.54882L2.55981 12.2008L37.5299 31.1655" stroke="#484751" stroke-width="2.63" stroke-miterlimit="10" stroke-linecap="square"/>
<path d="M66.3468 30.2495L69.0829 47.8167L71.6663 45.2333C72.4766 44.4231 73.78 44.4231 74.5786 45.2333L76.0464 46.7012C76.8567 47.5114 76.8567 48.8149 76.0464 49.6134L70.2689 55.3909L73.4512 75.7764L69.7992 79.4284L53.512 49.3903" stroke="#484751" stroke-width="2.63" stroke-miterlimit="10" stroke-linecap="square"/>
<path d="M23.6265 68.1788L13.8213 58.3735L63.3172 5.37824C65.5366 2.99445 68.6367 1.63229 71.8895 1.58532L75.1422 1.53835C78.0897 1.50312 80.4969 3.89865 80.45 6.84609L80.403 10.0989C80.356 13.3516 78.9938 16.4517 76.6101 18.6711L23.6265 68.1788Z" stroke="#484751" stroke-width="2.63" stroke-miterlimit="10" stroke-linecap="square"/>
<path d="M24.0374 57.9625L15.5708 66.4291" stroke="#484751" stroke-width="2.63" stroke-miterlimit="10" stroke-linecap="square"/>
<path d="M67.7207 9.65259L72.3474 14.2793" stroke="#484751" stroke-width="2.63" stroke-miterlimit="10" stroke-linecap="square"/>
<path d="M57.9742 71.1849L52.6782 76.4927" stroke="#484751" stroke-width="2.63" stroke-miterlimit="10" stroke-linecap="square"/>
<path d="M54.3339 64.6089L42.0862 76.8566" stroke="#484751" stroke-width="2.63" stroke-miterlimit="10" stroke-linecap="square"/>
<path d="M61.544 77.8549L59.7122 79.6867" stroke="#484751" stroke-width="2.63" stroke-miterlimit="10" stroke-linecap="square"/>
<path d="M10.815 24.0258L5.51904 29.3218" stroke="#484751" stroke-width="2.63" stroke-miterlimit="10" stroke-linecap="square"/>
<path d="M17.3911 27.6779L5.14331 39.9139" stroke="#484751" stroke-width="2.63" stroke-miterlimit="10" stroke-linecap="square"/>
<path d="M4.14511 20.4561L2.31323 22.2879" stroke="#484751" stroke-width="2.63" stroke-miterlimit="10" stroke-linecap="square"/>
</svg>
