<svg width="103" height="87" viewBox="0 0 103 87" fill="none" xmlns="http://www.w3.org/2000/svg">
<g clip-path="url(#clip0_60_512)">
<path d="M69.3808 53.8571C75.0664 53.8571 79.6808 49.2171 79.6808 43.5C79.6808 37.7828 75.0664 33.1428 69.3808 33.1428C63.6952 33.1428 59.0808 37.7828 59.0808 43.5C59.0808 49.2171 63.6952 53.8571 69.3808 53.8571ZM69.3808 37.2857C72.8004 37.2857 75.5608 40.0614 75.5608 43.5C75.5608 46.9385 72.8004 49.7143 69.3808 49.7143C65.9612 49.7143 63.2008 46.9385 63.2008 43.5C63.2008 40.0614 65.9612 37.2857 69.3808 37.2857Z" fill="#484751"/>
<path d="M96.9024 0H6.0976C2.7192 0 0 2.73429 0 6.13143V64.2971C0 67.6529 2.7192 70.4286 6.0976 70.4286H59.0808V84.9286C59.0808 85.7571 59.5752 86.5029 60.358 86.8343C61.1408 87.1657 62.006 87 62.5828 86.3786L69.3808 79.5429L76.1788 86.3786C76.5908 86.7929 77.0852 87 77.6208 87C77.868 87 78.1564 86.9586 78.4036 86.8343C79.1864 86.5029 79.6808 85.7571 79.6808 84.9286V70.4286H96.9024C100.24 70.4286 103 67.6943 103 64.2971V6.13143C103 2.77571 100.281 0 96.9024 0ZM54.178 39.0671C53.2716 38.2386 53.6012 37.2857 53.7248 36.9957C53.8484 36.7057 54.3428 35.7529 55.5376 35.8771C57.1856 35.9186 58.8748 35.3386 60.0696 34.1371C61.2644 32.9357 61.8824 31.2786 61.8 29.58C61.7588 28.3786 62.6652 27.8814 62.9124 27.7986C63.2008 27.6743 64.1484 27.3843 64.9724 28.2543C66.0848 29.4971 67.6916 30.2429 69.3808 30.2429C71.07 30.2429 72.6768 29.5386 73.7892 28.2543C74.6132 27.3429 75.5608 27.6743 75.8492 27.7986C76.1376 27.9229 77.044 28.3786 77.0028 29.58C76.9204 31.2786 77.5384 32.9357 78.7332 34.1371C79.928 35.3386 81.6172 35.9186 83.2652 35.8771C84.4188 35.7943 84.9544 36.7471 85.0368 36.9957C85.1192 37.2443 85.4488 38.28 84.5836 39.0671C83.3476 40.1857 82.606 41.8014 82.606 43.5C82.606 45.1986 83.3064 46.8143 84.5836 47.9329C85.49 48.7614 85.1604 49.7143 85.0368 50.0043C84.9132 50.2943 84.4188 51.2057 83.2652 51.1229C81.576 51.04 79.928 51.6614 78.7332 52.8629C77.5384 54.0643 76.9204 55.7214 77.0028 57.42C77.044 58.6214 76.1376 59.1186 75.8492 59.2429C75.5608 59.3671 74.572 59.6571 73.7892 58.7871C72.6768 57.5443 71.0288 56.7986 69.3808 56.7986C67.6916 56.7986 66.0848 57.5029 64.9724 58.7871C64.1484 59.6986 63.2008 59.3671 62.9124 59.2429C62.624 59.1186 61.7176 58.6629 61.8 57.42C61.8824 55.7214 61.2644 54.0643 60.0696 52.8629C58.9572 51.7443 57.4328 51.1229 55.8672 51.1229C55.7436 51.1229 55.6612 51.1229 55.5788 51.1229C54.4252 51.1229 53.8896 50.2529 53.766 50.0043C53.6424 49.7557 53.354 48.72 54.2192 47.9329C55.4552 46.8143 56.1968 45.1986 56.1968 43.5C56.1968 41.8014 55.4964 40.1857 54.2192 39.0671H54.178ZM70.8228 75.1929C69.9988 74.3643 68.7216 74.3643 67.8976 75.1929L63.1596 79.9571V63.5514C63.1596 63.5514 63.448 63.5929 63.5716 63.5929C65.2196 63.5929 66.7852 62.8886 67.98 61.6043C68.3508 61.2314 68.804 60.9829 69.3396 60.9829C69.8752 60.9829 70.3696 61.19 70.6992 61.6043C71.9764 63.0129 73.748 63.6757 75.5196 63.5514V79.9571L70.7816 75.1929H70.8228ZM98.88 64.3386C98.88 65.4157 98.0148 66.3271 96.9024 66.3271H79.6808V61.3971C80.6284 60.2786 81.2052 58.8286 81.1228 57.2543C81.1228 56.7157 81.2876 56.2186 81.6584 55.8457C82.0292 55.4729 82.5236 55.2657 83.0592 55.3071C85.5724 55.39 87.8796 53.9814 88.8684 51.62C89.8572 49.2586 89.2392 46.6071 87.344 44.8671C86.9732 44.4943 86.726 44.0386 86.726 43.5C86.726 42.9614 86.932 42.4643 87.344 42.1329C89.2392 40.3929 89.816 37.7829 88.8684 35.38C87.9208 32.9771 85.5724 31.61 83.0592 31.6929C82.5236 31.6929 82.0292 31.5271 81.6584 31.1543C81.2876 30.7814 81.0816 30.2843 81.1228 29.7457C81.2464 27.1771 79.8044 24.8986 77.456 23.9043C75.1076 22.91 72.4708 23.5314 70.7404 25.4371C70.3696 25.8514 69.9164 26.0586 69.3808 26.0586C68.8452 26.0586 68.392 25.8514 68.0212 25.4371C66.2908 23.5314 63.6952 22.9514 61.3056 23.9043C58.9572 24.8986 57.5152 27.1771 57.6388 29.7457C57.6388 30.2843 57.474 30.7814 57.1032 31.1543C56.7324 31.5271 56.1968 31.7343 55.7024 31.6929C53.148 31.61 50.882 33.0186 49.8932 35.38C48.9044 37.7414 49.5224 40.3929 51.4176 42.1329C51.7884 42.5057 52.0356 42.9614 52.0356 43.5C52.0356 44.0386 51.8296 44.5357 51.4176 44.8671C49.5224 46.6071 48.9456 49.2171 49.8932 51.62C50.882 53.9814 53.148 55.39 55.7024 55.3071C56.1968 55.2657 56.7324 55.4729 57.1032 55.8457C57.474 56.2186 57.68 56.7157 57.6388 57.2543C57.5564 58.8286 58.1332 60.2786 59.0808 61.3971V66.3271H6.0976C5.0264 66.3271 4.12 65.4571 4.12 64.3386V6.13143C4.12 5.05429 4.9852 4.14286 6.0976 4.14286H96.9024C97.9736 4.14286 98.88 5.01286 98.88 6.13143V64.2971V64.3386Z" fill="#484751"/>
<path d="M39.1401 53.8572H32.9601V47.6429C32.9601 46.8143 32.4657 46.0686 31.6829 45.7372C30.9001 45.4057 30.0349 45.6129 29.4581 46.1929L24.7201 50.9572V47.6843C24.7201 46.8557 24.2257 46.11 23.4429 45.7786C22.6601 45.4472 21.7949 45.6543 21.2181 46.2343L12.9781 54.52C12.1541 55.3486 12.1541 56.6329 12.9781 57.4614C13.8021 58.29 15.0793 58.29 15.9033 57.4614L20.6413 52.6972V55.97C20.6413 56.7986 21.1357 57.5443 21.9185 57.8757C22.1657 58 22.4541 58.0414 22.7013 58.0414C23.2369 58.0414 23.7725 57.8343 24.1433 57.42L28.8813 52.6557V55.9286C28.8813 57.0886 29.7877 58 30.9413 58H39.1813C40.3349 58 41.2413 57.0886 41.2413 55.9286C41.2413 54.7686 40.3349 53.8572 39.1813 53.8572H39.1401Z" fill="#484751"/>
<path d="M84.4601 12.4286H14.4201C13.2665 12.4286 12.3601 13.34 12.3601 14.5C12.3601 15.66 13.2665 16.5714 14.4201 16.5714H84.4601C85.6137 16.5714 86.5201 15.66 86.5201 14.5C86.5201 13.34 85.6137 12.4286 84.4601 12.4286Z" fill="#484751"/>
<path d="M43.2601 24.8572H14.4201C13.2665 24.8572 12.3601 25.7686 12.3601 26.9286C12.3601 28.0886 13.2665 29 14.4201 29H43.2601C44.4137 29 45.3201 28.0886 45.3201 26.9286C45.3201 25.7686 44.4137 24.8572 43.2601 24.8572Z" fill="#484751"/>
</g>
<defs>
<clipPath id="clip0_60_512">
<rect width="103" height="87" fill="white"/>
</clipPath>
</defs>
</svg>
