<svg width="170" height="64" viewBox="0 0 170 64" fill="none" xmlns="http://www.w3.org/2000/svg">
<path d="M86.4609 38.4222C83.5855 38.4222 81.2491 36.317 81.2491 32.8867C81.2491 29.4564 83.5712 27.3512 86.4167 27.3512C88.1986 27.3512 89.7569 28.1606 90.7452 29.6032L87.5555 32.445L87.3762 32.1947C89.6075 28.8232 87.6164 27.6601 86.4178 27.6601C85.2191 27.6601 84.1411 28.8232 84.1411 31.8858C84.1411 34.9483 85.1749 38.0099 86.5827 38.0099C87.1217 38.0099 87.436 37.5681 87.436 37.3027V33.9311C87.436 33.4154 87.1814 33.1652 86.6424 33.1652H86.3425V32.8562H91.3451V33.1652H91.0308C90.5062 33.1652 90.2516 33.4154 90.2516 33.9311V36.7729C89.5931 38.098 87.5854 38.4222 86.462 38.4222H86.4609Z" fill="black"/>
<path d="M91.4481 37.9663H91.5975C92.1365 37.9663 92.391 37.7161 92.391 37.2004V31.6649C92.391 31.1351 92.1365 30.8848 91.5975 30.8848H91.4481V30.5759H95.0428V33.1967C95.4468 31.592 96.2415 30.429 97.6936 30.429C98.7273 30.429 99.4611 31.0176 99.4611 32.2404L97.2298 33.9627C97.4246 32.3732 96.7052 32.0196 96.3167 32.0196C95.4778 32.0196 95.1635 33.7418 95.044 35.1551V37.2015C95.044 37.7172 95.2985 37.9674 95.8375 37.9674H95.9869V38.2764H91.4492V37.9674L91.4481 37.9663Z" fill="black"/>
<path d="M108.208 37.2004C108.208 37.7161 108.462 37.9663 109.001 37.9663H109.151V38.2753H105.556V35.463C105.061 37.171 104.073 38.4222 102.486 38.4222C101.408 38.4222 100.674 37.8478 100.674 36.6118V31.6649C100.674 31.1351 100.419 30.8848 99.8805 30.8848H99.7311V30.5759H103.326V35.8024C103.326 36.5977 103.58 36.8479 103.925 36.8479C104.823 36.8479 105.438 35.1257 105.557 33.7124V31.666C105.557 31.1362 105.303 30.8859 104.764 30.8859H104.614V30.577H108.209V37.2026L108.208 37.2004Z" fill="black"/>
<path d="M109.242 41.0431H109.391C109.93 41.0431 110.185 40.7928 110.185 40.2771V31.6649C110.185 31.1351 109.93 30.8848 109.391 30.8848H109.242V30.5759H112.836V33.1815C113.24 31.5768 114.004 30.4279 115.382 30.4279C117.12 30.4279 118.168 32.3122 118.168 34.4762C118.168 36.8762 116.85 38.4222 115.112 38.4222C114.318 38.4222 113.509 38.098 112.835 37.5834V40.2771C112.835 40.7928 113.09 41.0431 113.629 41.0431H113.778V41.352H109.24V41.0431H109.242ZM114.064 37.7455C114.903 37.7455 115.426 36.7445 115.426 35.0071C115.426 33.2696 114.887 32.0185 114.138 32.0185C113.269 32.0185 112.955 33.7407 112.835 35.154V37.1558C113.12 37.5094 113.644 37.7444 114.064 37.7444V37.7455Z" fill="black"/>
<path d="M123.096 30.4279C125.433 30.4279 127.214 32.0032 127.214 34.4326C127.214 36.862 125.433 38.4222 123.096 38.4222C120.76 38.4222 118.962 36.862 118.962 34.4326C118.962 32.0032 120.744 30.4279 123.096 30.4279ZM123.096 38.1132C123.786 38.1132 124.309 37.5246 124.309 34.4326C124.309 31.3407 123.785 30.7369 123.096 30.7369C122.408 30.7369 121.853 31.3407 121.853 34.4326C121.853 37.5246 122.392 38.1132 123.096 38.1132Z" fill="black"/>
<path d="M81.0842 55.9426V55.6336H81.3986C81.9232 55.6336 82.1777 55.3834 82.1777 54.8677V46.2555C82.1777 45.7256 81.9232 45.4754 81.3986 45.4754H81.0842V45.1664H85.622C89.157 45.1664 90.8935 47.0801 90.8935 50.555C90.8935 54.03 89.1559 55.9437 85.622 55.9437H81.0842V55.9426ZM84.9933 45.4754V55.6336H85.4571C87.1349 55.6336 88.0027 53.6024 88.0027 50.4365C88.0027 47.2705 87.1338 45.4754 85.4571 45.4754H84.9933Z" fill="#DC3226"/>
<path d="M95.8065 48.0963C98.1429 48.0963 99.9248 49.6716 99.9248 52.101C99.9248 54.5304 98.1429 56.0906 95.8065 56.0906C93.4701 56.0906 91.6727 54.5304 91.6727 52.101C91.6727 49.6716 93.4546 48.0963 95.8065 48.0963ZM95.8065 55.7816C96.4949 55.7816 97.0195 55.193 97.0195 52.101C97.0195 49.0091 96.4949 48.4053 95.8065 48.4053C95.1181 48.4053 94.5636 49.0091 94.5636 52.101C94.5636 55.193 95.1026 55.7816 95.8065 55.7816Z" fill="#DC3226"/>
<path d="M100.24 55.6336H100.39C100.929 55.6336 101.183 55.3834 101.183 54.8677V49.3322C101.183 48.8024 100.929 48.5521 100.39 48.5521H100.24V48.2432H103.835V51.0697C104.33 49.3616 105.318 48.0963 106.905 48.0963C107.983 48.0963 108.717 48.6849 108.717 49.9066V54.8677C108.717 55.3834 108.972 55.6336 109.511 55.6336H109.66V55.9426H105.122V55.6336H105.272C105.811 55.6336 106.065 55.3834 106.065 54.8677V50.7302C106.065 49.9208 105.811 49.6847 105.466 49.6847C104.568 49.6847 103.953 51.4069 103.834 52.8202V54.8666C103.834 55.3823 104.088 55.6325 104.627 55.6325H104.777V55.9415H100.239V55.6325L100.24 55.6336Z" fill="#DC3226"/>
<path d="M119.591 45.0185C122.601 45.0185 125.057 47.1236 125.057 50.554C125.057 53.5872 123.14 55.589 120.609 56.0155C119.321 56.3397 117.629 56.987 116.655 57.8705C117.209 57.6344 117.673 57.5462 118.108 57.5462C118.917 57.5462 119.576 57.8411 120.399 57.8411C122.137 57.8411 122.87 56.5312 123.109 55.6913L124.502 58.1936C124.142 58.9443 122.569 59.2685 121.671 59.2685C119.949 59.2685 118.046 58.1055 116.938 58.1055C116.578 58.1055 116.309 58.2088 116.145 58.5178L115.86 58.3709C116.474 57.2666 117.867 56.5453 119.23 56.0742C116.385 55.9274 114.108 53.8516 114.108 50.5529C114.108 47.2542 116.564 45.0174 119.59 45.0174L119.591 45.0185ZM119.591 55.7805C121.014 55.7805 122.168 54.6175 122.168 50.554C122.168 46.4905 121.014 45.3274 119.591 45.3274C118.168 45.3274 117 46.4905 117 50.554C117 54.6175 118.168 55.7805 119.591 55.7805Z" fill="#DC3226"/>
<path d="M134.044 54.8688C134.044 55.3845 134.299 55.6347 134.838 55.6347H134.987V55.9437H131.393V53.1313C130.898 54.8394 129.909 56.0906 128.322 56.0906C127.244 56.0906 126.511 55.5161 126.511 54.2802V49.3333C126.511 48.8034 126.256 48.5532 125.717 48.5532H125.568V48.2442H129.162V53.4708C129.162 54.2661 129.417 54.5163 129.761 54.5163C130.66 54.5163 131.274 52.7941 131.394 51.3808V49.3344C131.394 48.8045 131.139 48.5543 130.6 48.5543H130.451V48.2453H134.045V54.871L134.044 54.8688Z" fill="#DC3226"/>
<path d="M135.392 55.6336H135.542C136.081 55.6336 136.335 55.3834 136.335 54.8677V49.3322C136.335 48.8024 136.081 48.5521 135.542 48.5521H135.392V48.2432H138.987V54.8688C138.987 55.3845 139.242 55.6347 139.781 55.6347H139.93V55.9437H135.392V55.6347V55.6336ZM137.804 47.7862H137.49V47.771C137.49 47.0203 136.786 46.3284 136.022 46.3284H136.007V46.0194H136.022C136.786 46.0194 137.49 45.3274 137.49 44.5768V44.5615H137.804V44.5768C137.804 45.3274 138.508 46.0194 139.272 46.0194H139.286V46.3284H139.272C138.508 46.3284 137.804 47.0203 137.804 47.771V47.7862Z" fill="#DC3226"/>
<path d="M139.166 58.8583C140.559 58.9323 140.934 57.7247 140.934 56.7237V49.3333C140.934 48.8034 140.679 48.5532 140.155 48.5532H139.99V48.2442H143.599V56.6215C143.599 58.7419 141.637 59.2271 139.165 59.1684V58.8594L139.166 58.8583ZM142.402 47.7873H142.087V47.7721C142.087 47.0214 141.383 46.3294 140.62 46.3294H140.605V46.0204H140.62C141.383 46.0204 142.087 45.3285 142.087 44.5778V44.5626H142.402V44.5778C142.402 45.3285 143.105 46.0204 143.885 46.0204H143.899V46.3294H143.885C143.105 46.3294 142.402 47.0214 142.402 47.7721V47.7873Z" fill="#DC3226"/>
<path d="M148.812 48.0963C151.148 48.0963 152.93 49.6716 152.93 52.101C152.93 54.5304 151.148 56.0906 148.812 56.0906C146.476 56.0906 144.678 54.5304 144.678 52.101C144.678 49.6716 146.46 48.0963 148.812 48.0963ZM148.812 55.7816C149.5 55.7816 150.025 55.193 150.025 52.101C150.025 49.0091 149.5 48.4053 148.812 48.4053C148.124 48.4053 147.569 49.0091 147.569 52.101C147.569 55.193 148.108 55.7816 148.812 55.7816Z" fill="#DC3226"/>
<path d="M154.159 49.3322C154.159 48.8024 153.904 48.5521 153.365 48.5521H153.216V48.2432H153.381C155.148 48.1398 156.091 46.4023 154.953 45.4308L155.178 45.2981C157.095 45.7985 156.856 47.6535 155.777 48.2421H157.904V48.5511H156.811V54.2487C156.811 54.7644 157.065 55.1756 157.5 55.1756C157.8 55.1756 158.159 54.97 158.339 54.7633V55.0722C158.025 55.4552 157.335 56.0884 156.138 56.0884C154.625 56.0884 154.161 55.0581 154.161 54.1453V49.3311L154.159 49.3322Z" fill="#DC3226"/>
<path d="M166.111 51.8791C166.26 54.3379 165.017 56.0895 162.531 56.0895C160.18 56.0895 158.547 54.5 158.547 52.0847C158.547 49.6695 160.18 48.0952 162.381 48.0952C164.119 48.0952 165.721 49.0667 166.036 50.8629L161.528 52.3349C161.752 54.043 162.471 55.0146 163.52 55.0146C164.239 55.0146 165.902 54.5576 165.796 51.8791H166.111ZM163.534 51.3493C163.489 50.2156 163.19 48.4053 162.411 48.4053C161.962 48.4053 161.437 49.0091 161.437 51.0403C161.437 51.3939 161.452 51.7322 161.482 52.027L163.534 51.3503V51.3493Z" fill="#DC3226"/>
<path d="M44.7767 22.0093L20.3525 22.0093C20.2407 22.0093 20.1499 21.9201 20.1499 21.8102V21.0117C20.1499 20.9018 20.2407 20.8126 20.3525 20.8126L44.7767 20.8126V22.0093Z" fill="black"/>
<path d="M43.1032 18.1253C49.6686 20.5471 86.0935 20.1533 94.4795 21.411C86.0946 22.6686 49.6686 22.2748 43.1032 24.6966V21.411V18.1253Z" fill="black"/>
<path d="M55.7813 20.5264C61.3815 20.8104 67.99 20.9453 74.3805 21.0769C79.04 21.1727 85.715 21.1063 87.8765 21.4109C85.7415 21.7547 79.04 21.6503 74.3805 21.745C67.99 21.8755 61.3815 22.0104 55.7813 22.2955C50.0272 22.587 46.3317 22.9852 44.2996 23.5346V21.4109V19.2873C46.3317 19.8378 50.0272 20.2349 55.7813 20.5264Z" fill="#DC3226"/>
<path d="M55.7813 20.5265C54.8937 20.4819 54.0559 20.434 53.2645 20.3839L55.1803 22.327C55.3784 22.3161 55.5788 22.3064 55.7813 22.2955C56.7829 22.2443 57.8167 22.1986 58.8758 22.1562L57.3419 20.6004C56.8139 20.5765 56.2926 20.5526 55.7802 20.5265H55.7813ZM81.5381 21.1586C80.2675 21.1433 78.9338 21.1335 77.6367 21.1216L78.2078 21.7015C79.4961 21.6927 80.8076 21.6862 82.0428 21.6721L81.537 21.1586H81.5381ZM44.3019 19.2873L47.8701 22.9058C48.8906 22.7818 50.0637 22.6697 51.4007 22.5675L48.8983 20.0293C46.8762 19.8193 45.3622 19.5734 44.3019 19.2862V19.2873ZM73.5583 21.0596C72.2467 21.0324 70.9275 21.0052 69.6126 20.9758L70.4516 21.8266C71.7155 21.7994 72.9805 21.7733 74.2378 21.7471L73.5594 21.0585L73.5583 21.0596ZM65.4976 20.8779C64.1518 20.8431 62.8215 20.8039 61.5188 20.7615L62.7606 22.0213C63.9969 21.9832 65.2542 21.9495 66.5225 21.918L65.4976 20.8779Z" fill="#E8CA1C"/>
<path d="M74.0009 32.2241C73.4542 30.7924 72.9495 29.7066 72.8399 28.7731C72.7303 27.8397 72.6352 27.2826 72.4846 26.8594C72.3341 26.4362 72.0453 25.902 71.9202 25.6485C72.2666 24.5301 73.4863 23.7958 73.4774 22.3542C72.8488 22.846 71.8837 22.8917 71.3192 23.1691C71.0093 22.8645 70.8278 22.7927 70.6087 22.6229C70.8544 21.943 70.654 20.9399 71.3646 20.1794C70.7548 19.9292 69.607 20.3491 69.0968 20.8681C69.0968 20.8681 68.2712 21.2663 67.9635 21.881C65.4965 20.8757 56.5737 19.2764 51.2867 27.0074C49.5568 27.5274 48.0637 28.9951 48.0637 28.9951C42.8188 30.1407 38.0475 30.3104 37.2285 30.4899C34.7703 29.9351 31.046 30.6379 28.1098 32.705C25.6372 32.9063 22.4597 32.5309 19.5279 33.3001C16.3227 34.1052 14.5563 36.1462 13.5546 38.939C12.553 41.7318 10.7368 44.3722 7.51277 44.493C5.75079 44.5332 4.45365 43.4192 4.18028 42.4389C3.3336 43.553 4.11166 48.1986 8.42807 48.0648C9.61674 49.1788 12.5807 49.0047 14.4921 47.5414C15.6807 47.8907 18.617 47.0845 19.7636 44.0415C20.9113 40.9985 20.856 36.6478 24.9898 36.5226C23.7513 38.4918 22.9323 44.6682 20.929 46.225C20.3646 46.5655 19.2169 46.4045 18.4886 47.6209C18.0514 48.3454 18.316 49.008 18.0603 49.6706C17.8057 50.3331 17.2225 51.5549 16.5805 52.1185C16.1434 52.4677 14.5186 52.5167 14.4268 54.3422C14.3537 54.4141 14.1833 54.4608 14.1833 54.4608C13.3233 54.1584 12.2509 54.092 11.7661 54.0985C10.8851 54.7165 9.90228 56.0253 9.60124 56.9914C9.30131 57.9586 9.0545 59.336 9.48282 59.5068C10.3118 59.7124 12.688 59.2467 15.2967 57.1524C15.5291 56.9381 15.8202 56.7673 16.3304 56.5171C16.8406 56.2668 17.6054 55.8632 18.3979 54.6469C19.0354 53.7515 20.8925 51.4157 22.0579 50.6998C22.7231 50.3146 23.8155 50.1177 24.5349 49.9752C24.1066 50.8347 22.5859 52.7952 21.7126 53.09C20.7841 53.412 19.9551 53.4207 19.5821 55.2289C19.3176 55.3812 18.69 55.2735 18.0072 55.6587C17.2512 56.4289 16.8871 57.3058 16.6591 57.9771C16.4311 58.6484 16.2042 60.3488 16.668 60.3934C17.5877 60.2596 19.8001 59.0422 20.4376 58.4602C21.0751 57.8781 21.5123 57.0056 22.4818 56.2668C23.4514 55.5281 26.5747 51.8269 29.0151 51.3079C31.4555 50.789 33.4588 49.428 35.4986 47.1911C36.8643 45.6876 38.685 44.3983 41.5991 44.345C44.3848 45.2219 48.9514 45.2981 52.2706 43.9022C53.6231 43.9022 56.2682 43.6292 58.2527 43.7728C57.5244 44.4168 56.566 45.1382 55.3839 45.3188C54.524 45.4526 54.3734 46.0575 53.8333 46.0912C53.3685 45.9498 52.358 45.3927 51.4095 45.507C50.399 45.9432 49.5313 46.8898 49.2513 47.387C48.9713 47.8841 48.6094 48.9775 48.7942 49.3007C49.4151 49.7239 51.3055 49.6184 52.8981 49.0548C52.6247 49.5563 52.3879 50.6127 52.6889 50.7825C53.7448 51.1132 55.0087 50.9522 56.9068 50.3549C58.204 49.898 58.7031 50.5692 60.0888 49.4889C61.4756 48.4085 63.4966 47.0453 64.6033 46.4676C66.01 45.9976 67.1943 44.5256 66.2292 42.9677C65.6924 42.1974 64.6631 42.2072 64.4262 42.2246C63.9714 42.2605 63.6338 42.3856 62.6875 42.1974C62.4783 41.3923 61.5863 40.819 60.4751 40.8636C61.0395 39.8344 61.1303 38.3482 60.9665 36.7468C61.1757 35.4847 61.3218 34.7058 61.9681 33.9627C62.6145 33.2196 64.1717 31.7607 65.1733 31.3222C66.2845 31.3853 67.8417 31.8325 68.4969 33.3273C68.4792 33.8735 68.6065 35.117 69.0072 35.4662C69.4986 35.8775 71.0558 36.7109 72.322 36.9698C72.8222 37.0775 73.4509 36.057 74.3341 34.0073C74.5521 33.4078 74.2112 32.8486 74.002 32.222L74.0009 32.2241ZM60.6842 45.1131C61.1347 45.0598 61.7014 44.7846 62.0024 44.4549C62.0024 44.4549 62.2481 44.5757 62.4263 44.6431C62.0367 45.3949 60.5415 46.4024 59.1757 46.6569C58.1951 46.8397 58.3158 47.2814 57.9538 47.4022C57.8255 47.4457 57.5709 47.3108 57.3163 47.2923C57.7081 46.979 59.8254 45.643 60.6854 45.1131H60.6842Z" fill="black"/>
<path d="M71.6722 35.1845C71.8493 35.4564 72.3418 35.6207 72.6894 35.5935C73.0989 34.9157 73.6799 33.694 73.4132 33.1293C72.9893 32.284 71.9567 29.0147 71.7829 27.6721C71.701 27.0814 70.9274 25.7051 70.6739 25.4832C70.4216 25.2612 69.4609 24.7401 69.1599 24.5976C68.9097 24.7368 68.664 24.7814 68.4593 24.7814C68.8732 24.6476 69.4023 24.2135 69.6203 23.9307C69.9158 23.514 70.1803 22.8656 70.0896 22.0289C69.721 22.5751 69.6612 23.7337 68.633 24.1102C69.2163 23.3399 69.1654 22.7404 69.3392 22.1856C69.5118 21.6307 70.136 20.9769 70.4725 20.6374C69.5616 20.7984 68.7238 21.9528 68.4416 22.7763C68.1594 23.5999 67.8041 24.3876 66.9485 24.4148C67.2485 24.0297 67.4377 23.6587 67.5196 23.4574C66.9397 23.6521 66.5435 24.1287 66.4472 24.6585C66.1882 24.1482 66.3741 23.1343 67.2573 22.6338C65.6547 21.9985 61.5851 21.4697 58.4574 22.5849C56.0258 23.4443 53.8134 25.0012 52.2019 27.8614C50.0581 28.6535 48.4599 30.4388 48.2685 31.889C47.7217 31.4865 47.7627 30.4475 47.8545 30.0809C46.1058 30.5106 42.5465 31.0568 39.0767 31.3788C37.1377 31.4996 35.3613 32.2198 34.8157 32.569C34.9518 31.987 35.503 31.5126 35.6756 31.3603C34.4504 31.3157 30.2713 31.6736 27.0118 35.1464C25.1724 37.0264 24.7905 40.5165 23.4967 43.7564C24.225 43.1657 24.5437 42.3465 25.2952 41.8362C24.7219 42.8437 24.4762 43.9708 23.738 45.099C23.0009 46.2272 22.4951 47.1258 20.7874 47.5023C19.9816 47.6633 19.3076 47.6415 19.3264 49.082C19.5544 48.9928 19.7813 48.8579 19.9639 48.6435C20.0181 49.3322 19.5721 49.8164 19.053 50.604C20.1642 50.3625 21.4569 49.2887 22.8138 48.7512C22.1675 48.6076 21.1935 48.76 20.8017 48.9036C21.4304 47.9103 23.3285 46.8713 26.7152 46.9387C25.6361 47.3815 24.94 48.1605 24.7352 48.3487C25.9781 48.3487 27.1568 47.9277 27.9127 47.3641C28.6687 46.8005 29.7157 45.5026 30.0621 44.7867C29.543 45.2437 29.1058 45.5211 28.5691 45.6723C29.3161 44.6072 30.6221 42.1463 31.5916 40.7765C32.5612 39.4068 33.845 39.125 35.1566 39.273C34.3099 39.6755 33.4222 40.4948 33.067 41.3401C34.6928 40.3871 37.5062 39.2186 39.0358 39.3666C40.5653 39.5145 46.4655 40.2119 47.6675 37.7281C46.7522 38.1448 45.5646 38.2917 44.7722 37.6204C46.5342 37.1776 46.8618 34.4251 48.2829 33.3371C47.9143 34.4109 48.0372 35.7937 48.5828 36.5194C48.8694 36.1299 49.2114 35.8971 49.6663 35.8079C49.0742 36.8099 48.637 38.7345 49.2933 39.8899C49.5933 39.2719 49.767 38.3417 49.8301 38.1263C50.295 38.7888 49.6575 40.8114 49.9663 41.7426C50.2761 42.6739 51.0952 42.996 51.9418 43.058C51.6596 42.7446 51.6508 42.3149 51.6508 42.1724C52.4698 42.7185 54.0093 42.9688 56.0944 42.897C57.2875 42.8339 58.5891 43.157 59.4546 42.7806C59.0174 42.5923 58.7717 42.3421 58.2438 42.1811C58.6444 41.9483 59.1812 42.0832 59.5099 42.1278C59.8375 42.1724 60.2249 41.8591 60.3112 41.7611C60.4252 41.8504 60.3799 42.0701 60.3754 42.1321C60.5304 42.2888 60.5713 42.6239 60.7938 42.7588C61.0174 42.8926 61.2398 43.1211 61.3903 43.367C62.019 43.2908 62.1463 42.7631 61.9459 42.2975C61.7456 41.8319 61.2719 41.5272 60.4872 41.5348C59.5443 41.5751 57.7535 40.8386 56.9157 40.5709C56.0778 40.3022 55.1404 39.8572 54.7099 39.5754C53.8831 39.5015 52.9003 40.2065 52.7564 40.3881C53.6441 40.9049 55.5698 41.4489 56.0546 41.5566C54.7165 41.7307 52.2717 41.673 51.5788 41.7089C51.3696 40.9658 51.643 39.9725 51.9795 39.4449C52.4443 39.0869 53.5456 38.7562 54.338 38.729C54.8847 39.0064 55.6041 39.3644 56.0048 39.4895C55.8775 38.6659 54.8936 37.69 54.4929 37.4126C54.7663 37.3147 55.2212 37.3952 55.2212 37.3952C55.1935 36.2942 54.6656 35.0147 53.8366 34.263C54.7198 34.2989 56.1221 35.7491 55.9218 37.727C56.5405 37.1275 56.6135 35.7491 56.4685 35.2922C57.106 35.7132 57.6705 37.2886 57.6251 37.7716C58.1619 36.2953 57.7247 33.8419 57.4978 33.4307C57.3982 33.9855 57.2975 34.6699 57.1879 35.154C55.9041 33.6374 55.8764 31.0502 56.8969 30.3964C56.815 30.9784 56.847 31.6225 57.0241 31.9848C57.9394 28.7492 60.0467 27.0041 63.1977 26.3057C62.7971 26.6995 62.3787 27.2729 62.2138 27.5046C63.2973 27.2631 64.5767 26.4928 65.0073 26.05C64.673 26.063 64.0311 25.9891 64.0311 25.9891C64.8169 25.4788 65.4721 25.2503 66.1417 25.4658C65.3083 26.0696 64.9099 27.3338 65.0737 28.5958C65.1921 29.4466 65.8473 30.082 66.6674 30.3768C67.4864 30.6716 68.2335 31.0306 68.9618 32.3906C69.1898 32.2296 69.5218 32.2111 69.7265 32.2851C69.5008 32.5135 69.8295 32.9563 70.0132 33.2251C70.198 33.4938 70.3884 33.695 70.6142 33.9028C70.84 34.1106 70.9075 34.5132 71.0237 34.9233C71.1399 35.3324 71.3889 35.773 71.836 35.8503C71.6247 35.5881 71.5771 35.3205 71.6722 35.1855V35.1845Z" fill="white"/>
<path d="M47.6675 37.7292C46.7522 38.1459 45.5646 38.2927 44.7722 37.6215C45.8303 37.3549 46.3715 36.2572 46.9415 35.1856C46.1092 35.9406 44.9172 36.3366 43.765 36.4302C42.2288 36.5542 40.696 36.2441 39.1587 36.131C37.6213 36.0178 35.9789 36.1332 34.7116 36.9948C34.5988 35.3096 34.9562 33.5591 35.8096 32.1012C35.3558 32.2753 35.0072 32.445 34.8146 32.5679C34.9507 31.9859 35.5019 31.5115 35.6745 31.3592C35.4797 31.3516 35.2086 31.3549 34.8799 31.3799C34.6475 31.5322 34.4261 31.703 34.2169 31.8771C33.1854 32.7377 32.259 33.7679 31.771 35.0082C31.4843 35.7382 31.357 36.5183 31.1678 37.2788C30.3676 40.4937 28.475 46.8658 23.3938 46.3306C24.8857 44.7998 26.3788 41.0257 26.6787 39.7778C26.9167 38.7889 26.9753 37.7335 27.4878 36.8512C25.9471 38.0273 25.241 39.9997 24.2184 41.6741C24.0036 42.3671 23.769 43.0678 23.4945 43.7554C24.2228 43.1646 24.5415 42.3454 25.293 41.8351C24.7197 42.8426 24.474 43.9697 23.7358 45.0979C22.9987 46.2261 22.4929 47.1248 20.7852 47.5012C19.9794 47.6622 19.3054 47.6405 19.3242 49.0809C19.5522 48.9917 19.7791 48.8568 19.9617 48.6425C20.0159 49.3311 19.5699 49.8153 19.0508 50.6029C20.162 50.3614 21.4547 49.2876 22.8116 48.7502C22.1653 48.6066 21.1913 48.7589 20.7995 48.9025C21.4282 47.9092 23.3263 46.8702 26.713 46.9376C25.6339 47.3804 24.9378 48.1594 24.733 48.3476C25.9759 48.3476 27.1546 47.9266 27.9105 47.363C28.6665 46.7995 29.7135 45.5015 30.0599 44.7857C29.5408 45.2426 29.1036 45.52 28.5669 45.6713C29.3139 44.6061 30.6199 42.1452 31.5894 40.7755C32.559 39.4057 33.8428 39.1239 35.1544 39.2719C34.3077 39.6744 33.42 40.4937 33.0648 41.339C34.6906 40.386 37.504 39.2175 39.0336 39.3655C40.5631 39.5134 46.4633 40.2108 47.6653 37.727L47.6675 37.7292Z" fill="#CBCBCA"/>
<path d="M66.4483 24.6585C66.1893 24.1482 66.3752 23.1343 67.2585 22.6338C67.0172 22.5381 66.7195 22.4445 66.3786 22.3596L66.0476 22.6197C66.0476 22.6197 62.2979 21.8668 59.5243 22.9341C62.8635 22.4597 65.8949 23.3083 65.8949 23.3083C65.5075 23.6043 65.0051 23.7794 64.5192 23.848C63.7179 23.9611 62.9022 23.8948 62.0932 23.9328C58.8138 24.0873 55.6916 26.1022 54.2428 28.9983C54.4941 27.3436 55.323 25.7758 56.6633 24.7455C56.0181 24.6922 55.3894 25.0621 54.9202 25.5017C54.0956 26.2752 53.4238 27.2054 52.9534 28.2248C53.0708 28.4065 53.0741 28.598 53.125 28.808C52.8538 28.7144 52.5495 28.7209 52.2816 28.8243C53.1704 29.2497 53.9351 29.9231 54.462 30.7467C54.5251 30.8457 54.5892 30.9512 54.69 31.0132C55.0552 31.2406 55.1592 31.703 55.2943 32.1066C55.6296 30.2963 56.4719 28.5044 57.7613 27.1695C57.7613 27.1695 59.1027 26.1512 60.5193 25.8465C62.0976 25.5822 62.4252 25.8041 62.4252 25.8041C62.4252 25.8041 58.329 26.3503 56.8958 30.3931C56.8139 30.9752 56.8459 31.6192 57.023 31.9815C57.9383 28.7459 60.0456 27.0009 63.1966 26.3024C62.796 26.6962 62.3776 27.2696 62.2127 27.5013C63.2962 27.2598 64.5756 26.4895 65.0062 26.0467C64.6719 26.0598 64.03 25.9858 64.03 25.9858C64.8158 25.4756 65.471 25.2471 66.1406 25.4625C66.507 24.9871 66.8467 24.8848 66.8467 24.8848L66.9486 24.4126C67.2485 24.0275 67.4377 23.6565 67.5196 23.4552C66.9397 23.65 66.5435 24.1265 66.4472 24.6563L66.4483 24.6585ZM59.0185 41.8678C58.2372 41.6306 54.5516 40.7243 52.7553 40.3871C53.643 40.9038 55.5687 41.4478 56.0535 41.5555C54.7154 41.7296 52.2706 41.6719 51.5777 41.7078C51.3685 40.9648 51.6419 39.9715 51.9784 39.4438C52.4432 39.0859 53.5445 38.7551 54.3369 38.7279C54.8836 39.0054 55.603 39.3633 56.0037 39.4884C55.8764 38.6648 54.8925 37.6889 54.4919 37.4115C54.7652 37.3136 55.2201 37.3941 55.2201 37.3941C55.2079 36.8882 55.0895 36.3453 54.8848 35.8329C54.6313 35.8253 54.2517 35.822 53.8134 35.8503C53.0088 35.9003 52.0813 34.5426 51.4947 34.3402C51.8832 35.3074 51.7238 36.1375 51.7238 36.1375C51.7238 36.1375 53.3563 36.4769 54.027 37.3941C54.027 37.3941 54.2816 37.9163 54.027 38.0741C53.7724 38.2318 51.9109 38.4298 51.4947 38.7464C50.2751 37.7183 49.6719 36.5759 50.0338 35.4477C48.948 35.3476 48.8185 35.599 48.8185 35.599C48.8185 35.599 48.2961 34.7906 48.2818 33.3404C47.9132 34.4142 48.0361 35.797 48.5817 36.5226C48.8683 36.1332 49.2103 35.9003 49.6652 35.8111C49.0731 36.8131 48.6359 38.7377 49.2922 39.8931C49.5922 39.2752 49.7659 38.345 49.829 38.1295C50.2939 38.7921 49.6564 40.8146 49.9652 41.7459C50.2751 42.6772 51.0941 42.9992 51.9407 43.0612C51.6585 42.7479 51.6497 42.3182 51.6497 42.1756C52.4687 42.7218 54.0082 42.972 56.0933 42.9002C57.2864 42.8371 58.588 43.1602 59.4535 42.7838C59.0163 42.5956 58.7706 42.3454 58.2427 42.1844C58.6433 41.9515 59.1801 42.0864 59.5088 42.131C59.8364 42.1756 60.2238 41.8623 60.3101 41.7644C60.3101 41.7644 59.7988 42.1082 59.0174 41.871L59.0185 41.8678ZM57.4978 33.4274C57.3982 33.9823 57.2975 34.6666 57.1879 35.1507C56.6988 34.573 56.3922 33.8387 56.256 33.1163C56.0114 32.9357 55.6827 32.6941 55.4536 32.532C55.0076 32.2165 54.3347 32.3471 53.8079 32.4983C53.281 32.6506 52.8173 33.0042 52.5373 33.4698C52.5373 33.4698 53.2821 33.6189 53.8366 34.2597C54.7198 34.2956 56.1221 35.7458 55.9218 37.7237C56.5405 37.1243 56.6135 35.7458 56.4685 35.2889C57.106 35.7099 57.6705 37.2853 57.6251 37.7683C58.1619 36.292 57.7247 33.8387 57.4978 33.4274Z" fill="#CBCBCA"/>
<path d="M70.3508 32.1012C70.3431 32.1001 70.3342 32.099 70.3265 32.099C70.3265 32.1001 70.3265 32.1023 70.3265 32.1034C70.3287 32.0925 70.3641 32.1414 70.3508 32.1012ZM73.4144 33.1304C73.3557 33.0129 73.2849 32.8475 73.2063 32.6473C72.9949 32.544 72.7525 32.5027 72.519 32.5375C72.219 31.8531 71.9302 31.1329 71.6623 30.4355C71.5406 30.12 71.3071 29.7849 71.1366 29.4923C71.3635 29.229 71.4786 28.8896 71.4875 28.5447C71.4963 28.1998 71.3812 27.8538 71.1687 27.5807C71.016 27.3849 70.6895 27.3251 70.4405 27.3001C70.1914 27.275 69.9004 27.2217 69.7886 27.0009C69.7299 26.8855 69.7354 26.7495 69.7421 26.6201C69.7532 26.4297 69.7631 26.2393 69.7742 26.05C69.7742 26.05 69.3315 25.1709 68.4627 24.7814C68.8766 24.6476 69.4056 24.2135 69.6237 23.9307C69.9192 23.514 70.1837 22.8656 70.0929 22.0289C69.7244 22.5751 69.6646 23.7337 68.6364 24.1102C69.2197 23.3399 69.1688 22.7404 69.3425 22.1856C69.5152 21.6307 70.1394 20.9769 70.4759 20.6374C70.3077 20.6668 70.1416 20.731 69.98 20.8213C69.6768 21.0465 69.4233 21.337 69.2474 21.6688C68.9673 22.1986 68.8866 22.8057 68.694 23.3715C68.5014 23.9372 68.1406 24.5094 67.5606 24.6857C68.124 25.4973 68.4616 26.5069 68.5623 27.4839C68.6043 27.8952 68.414 28.3401 68.611 28.7046C68.8179 29.0876 69.3381 29.1441 69.7343 29.3356C70.3032 29.612 70.6375 30.2092 70.819 30.8065C70.6474 30.6161 70.4194 30.4758 70.1704 30.4062C70.6275 31.3559 70.9872 32.3786 70.9186 33.4274C70.633 33.2533 70.3884 33.0162 70.2069 32.7376C70.1306 32.6212 70.0642 32.4885 70.0774 32.3514C70.0896 32.222 70.2014 32.0958 70.3298 32.099C70.1892 31.3342 69.8494 30.6053 69.3503 30.0014C68.9939 29.5706 68.4815 29.2388 67.9602 29.0255C67.4389 28.8123 66.8855 28.6317 66.466 28.2607C66.5269 28.7949 66.7549 29.2943 67.2198 29.5782C66.9342 29.5565 66.5966 29.4586 66.3476 29.3193C65.9946 29.1213 65.7002 28.7993 65.6072 28.4098C65.3958 27.522 65.4368 26.5689 65.8274 25.7486C65.2132 26.4155 64.9343 27.5068 65.0759 28.5958C65.1944 29.4466 65.8496 30.082 66.6697 30.3768C67.4898 30.6716 68.2358 31.0306 68.964 32.3906C69.192 32.2296 69.5241 32.2111 69.7288 32.2851C69.503 32.5135 69.8317 32.9563 70.0155 33.2251C70.2003 33.4938 70.3907 33.695 70.6164 33.9028C70.8422 34.1106 70.9097 34.5132 71.0259 34.9233C71.1422 35.3324 71.3912 35.773 71.8383 35.8503C71.6269 35.5881 71.5793 35.3205 71.6745 35.1855C71.8516 35.4575 72.3441 35.6218 72.6916 35.5946C73.1011 34.9168 73.6822 33.695 73.4155 33.1304H73.4144ZM70.3276 32.1034C70.3276 32.1034 70.3276 32.1099 70.3309 32.1175C70.3309 32.1132 70.3287 32.1077 70.3276 32.1034Z" fill="#CBCBCA"/>
<path d="M70.6407 35.4466C70.4769 35.1246 70.3264 34.3587 70.0674 34.1672C69.8084 33.9746 69.5937 33.6211 69.503 33.3969C69.3757 33.8136 69.5395 34.2695 69.7675 34.5023C70.177 34.9005 70.2777 35.4292 70.6418 35.4466H70.6407Z" fill="white"/>
<path d="M59.2089 36.9546C59.6461 35.3618 59.728 33.5667 60.2471 32.4124C60.7661 31.258 61.8585 29.7273 62.1319 29.3509C61.2719 29.6457 59.428 31.9957 59.127 33.6744C58.9765 34.6013 58.9632 36.3551 59.2089 36.9546Z" fill="#CBCBCA"/>
<path d="M62.7417 42.835C63.1789 42.9242 63.6548 43.0319 64.0986 42.9111C64.6177 42.7566 66.0111 42.9111 65.8883 44.2743C65.7588 44.5964 65.4312 44.6638 65.274 44.7041C65.1578 44.3886 64.5635 44.1166 64.4816 43.9316C64.3997 43.7467 64.2635 43.5051 64.1982 43.442C64.2491 43.2875 64.2292 43.1701 64.2115 43.0895C64.082 43.1907 63.9968 43.2571 63.9005 43.318C63.5076 43.3746 63.0472 43.4257 62.6819 43.3681C62.7672 43.1494 62.765 42.9612 62.7428 42.835H62.7417Z" fill="white"/>
<path d="M59.5232 43.8043C59.4004 43.8576 59.1336 43.9316 59.1336 43.9316C58.3069 44.6834 57.0441 45.6571 55.5145 45.9987C54.9135 46.1195 54.9268 46.287 54.5926 46.5558C54.2583 46.8245 53.8411 46.8441 53.4725 46.6896C53.104 46.5351 52.3392 46.0988 51.6906 46.1663C51.2745 46.3208 50.6735 46.7908 50.4953 46.9714C51.4449 46.7364 52.4897 46.9648 53.5135 47.1998C53.8068 47.2608 53.6573 47.4947 53.7182 47.8515C53.903 47.919 54.1211 47.9385 54.3126 47.8852C54.4221 47.301 54.6125 46.8452 55.2411 46.6167C56.463 46.1804 59.0042 44.7432 59.5232 43.8043Z" fill="white"/>
<path d="M56.5316 47.9331C57.0164 47.9331 57.5764 48.2214 58.0003 48.1279C58.4508 48.0267 58.4375 47.5034 59.2642 47.3554C60.091 47.2074 62.0644 46.1467 62.9996 45.2742C63.0881 45.2535 63.1977 45.2469 63.3825 45.2067C63.0892 45.817 60.9587 47.1672 59.1004 47.9386C58.6633 48.1126 58.4242 48.3813 58.1575 49.2006C57.9527 49.268 57.6384 49.2278 57.6384 49.2278C57.5089 48.9863 57.6727 48.5163 57.3617 48.4488C57.0507 48.3813 56.3778 48.3313 56.0159 48.352C56.2007 48.1605 56.3778 48.0158 56.5316 47.932V47.9331Z" fill="white"/>
<path d="M24.1708 33.9116C20.9788 33.5939 17.2147 34.61 15.2657 37.5094C13.973 39.496 12.4977 46.4687 6.3241 45.5157C7.6489 46.3882 10.8453 46.2142 13.0854 43.5824C12.553 44.6431 11.61 45.8377 9.88901 46.6439C11.5968 46.6569 13.5225 45.1305 14.865 42.0212C16.1445 39.0587 17.1959 37.2995 20.597 35.8634C19.1626 35.7828 17.1959 36.9644 16.254 37.8097C17.4018 35.9569 20.8206 34.4577 24.1708 33.9116Z" fill="#979797"/>
<path d="M12.1877 46.4513C14.5097 44.8226 14.9967 43.4344 15.6254 41.8504C16.254 40.2663 17.2103 38.1176 19.6684 37.2994C17.7559 38.5887 16.9369 40.4676 16.4045 41.8504C15.8722 43.2331 14.7023 45.8159 12.1889 46.4513H12.1877Z" fill="#979797"/>
<path d="M18.4255 39.5776C16.7953 40.6068 16.9325 43.4888 15.3111 45.4493C16.5861 44.9837 17.4604 42.8806 17.6785 42.0299C17.8965 41.1791 18.2972 39.9355 18.4255 39.5776Z" fill="#979797"/>
<path d="M19.4161 56.0275C19.3408 56.3909 19.3065 56.9936 19.3065 56.9936C18.8627 57.0034 18.0868 57.0893 17.8743 57.1372C17.902 56.7455 18.1455 56.3441 18.2473 56.0852C18.6026 56.009 19.1903 55.9992 19.415 56.0275H19.4161Z" fill="#979797"/>
<path d="M13.4517 55.3105C13.3355 55.5727 13.1053 56.2103 13.1053 56.2103C12.5109 56.0558 11.5624 55.935 11.2337 55.8817C11.4451 55.5531 11.8801 55.0494 12.0715 54.9352C12.4954 55.0157 13.1849 55.217 13.4506 55.3116L13.4517 55.3105Z" fill="#979797"/>
<path d="M70.9053 29.2192C71.1432 28.809 71.701 28.0801 71.4288 27.7178C71.1554 27.3555 70.892 26.7735 70.3408 26.4601C70.4094 27.0335 70.7415 27.4937 70.8964 27.7352C71.0514 27.9768 70.9141 28.2455 70.8876 28.4108C70.7924 28.2901 70.788 27.9321 70.4692 27.856C70.1505 27.7798 69.7908 27.7124 69.5683 27.6275C69.5915 27.9365 69.7044 27.9811 69.8007 28.2139C69.8959 28.4467 69.9601 28.6926 70.3884 28.9124C70.6618 29.0462 70.6485 29.1278 70.9075 29.2192H70.9053Z" fill="black"/>
<path d="M69.2794 27.4317C69.3746 27.0248 69.5893 26.6571 69.2794 26.3753C68.9695 26.0935 68.7105 25.8378 68.4504 25.7617C68.5921 26.0924 68.8422 26.3568 68.9098 26.6886C68.9784 27.0194 69.1234 27.2435 69.2783 27.4317H69.2794Z" fill="black"/>
<path d="M70.0365 28.9983C69.7731 28.8101 69.586 28.6361 69.5074 28.3945C69.4289 28.153 69.2241 27.8103 69.0636 27.7233C69.1212 28.066 68.985 28.5392 69.1389 28.7536C69.2927 28.9679 69.7598 29.0625 70.0365 28.9983Z" fill="black"/>
<path d="M71.3446 29.8818C71.8228 30.0635 72.1161 30.9088 72.157 31.728C71.7674 31.2308 71.1255 30.1298 71.3446 29.8818Z" fill="black"/>
<path d="M69.8561 31.5191C69.7808 30.9686 69.4123 30.3311 69.1322 30.2767C68.8522 30.2234 68.2988 30.169 67.9646 30.4181C68.4837 30.7336 69.5628 31.2036 69.8561 31.5191Z" fill="black"/>
<path d="M71.597 34.4468C71.8151 34.0171 71.7332 33.1173 72.3895 32.8018C72.2191 32.668 71.939 32.6811 71.8505 32.7007C71.7066 32.2111 71.2152 31.5126 70.8334 31.3048C71.1886 31.9565 71.2639 32.9901 71.3801 33.2653C71.3392 33.608 71.5572 34.1378 71.5981 34.4468H71.597Z" fill="black"/>
<path d="M73.2295 33.4057C72.8809 33.0836 72.4027 33.1032 72.2732 33.3382C72.1028 33.6668 71.7265 34.956 72.0552 35.0974C72.3828 35.2389 72.82 34.4871 72.9428 34.1977C73.0657 33.9094 72.8477 33.6602 72.7724 33.533C72.841 33.4318 73.0867 33.4252 73.2295 33.4057Z" fill="black"/>
<path d="M55.4526 33.8082C55.8355 32.9487 55.5212 32.2502 55.8355 31.0698C56.4641 29.1898 57.8974 26.9214 60.5205 25.8465C58.1708 25.444 55.1659 27.9942 54.8936 30.2506C54.1012 29.526 53.4737 29.365 52.9811 29.1768C53.4725 30.2778 55.0298 30.949 55.4537 33.8093L55.4526 33.8082Z" fill="black"/>
<path d="M54.0281 37.393C53.8732 36.7305 53.0177 36.1669 52.4897 36.0146C52.2529 34.9767 51.197 33.8931 50.6503 33.7408C51.643 35.092 51.2966 36.1571 51.6519 36.4889C52.0072 36.8197 52.6624 36.4443 54.0281 37.393Z" fill="black"/>
<path d="M33.2452 39.0445C33.1909 37.6215 32.9995 36.5335 34.311 33.6874C33.3824 33.9562 32.5081 35.6882 32.3033 36.3323C32.0986 36.9763 32.8091 38.9771 33.2463 39.0445H33.2452Z" fill="black"/>
<path d="M29.1977 34.2608C27.9227 35.9971 26.8945 39.3981 26.2471 40.0694C26.5204 38.333 26.5016 36.8827 26.848 36.3279C27.1945 35.773 28.3322 34.4664 29.1977 34.2608Z" fill="black"/>
<path d="M50.4953 46.9725C50.6724 46.7908 51.2734 46.3208 51.6906 46.1674C52.3392 46.0999 53.104 46.5362 53.4725 46.6907C53.5301 46.7146 53.5898 46.7342 53.6496 46.7494C53.5932 46.9017 53.5456 47.0541 53.5135 47.2009C52.4886 46.9659 51.4438 46.7375 50.4953 46.9725Z" fill="#979797"/>
<path d="M56.5316 47.9331C56.9146 47.9331 57.3451 48.1137 57.7181 48.142C57.6329 48.2475 57.5432 48.3672 57.4635 48.4978C57.437 48.476 57.4038 48.4586 57.3617 48.4499C57.0507 48.3824 56.3778 48.3324 56.0159 48.3531C56.2007 48.1616 56.3778 48.0169 56.5316 47.9331Z" fill="#979797"/>
<path d="M15.2657 37.5094C17.2147 34.6089 20.9788 33.5939 24.1708 33.9115C20.8195 34.4577 17.4007 35.9569 16.254 37.8097C15.1606 39.4514 14.5872 41.624 13.0854 43.5824C10.8453 46.2141 7.6489 46.3882 6.3241 45.5157C12.4977 46.4687 13.973 39.496 15.2657 37.5094Z" fill="#CBCBCA"/>
<path d="M48.4422 13.8257C48.8562 13.5233 49.6176 12.8934 49.8047 12.6834C49.5114 10.8458 48.4688 9.21717 47.4539 8.4828C46.2785 7.58959 44.8497 7.57654 43.7274 8.1945C42.6051 8.81137 42.2853 10.1898 42.272 11.2527C41.8315 11.3974 41.0966 11.9218 41.0966 11.9218C40.1979 11.5454 37.8515 11.3441 36.3696 12.394C36.3961 12.5648 36.4139 12.6605 36.4537 12.753C35.5639 12.9325 34.6596 13.2339 33.7333 13.5233C33.0924 13.445 32.238 13.5929 31.7344 13.9824C30.9464 13.7463 30.4738 13.8073 29.8717 13.9596C29.9558 14.4687 30.1562 15.054 30.6254 15.7014C30.559 16.3444 30.7372 17.1103 30.8789 17.4084C31.0659 17.5139 31.2087 17.478 31.2087 17.478C32.0676 19.0229 33.6348 20.397 36.1549 21.7928C35.9678 22.9221 36.1549 24.6542 36.1549 24.6542C35.14 26.2556 34.2402 28.3652 34.0266 29.6772C34.4183 29.6076 35.0769 29.6598 35.0769 29.6598C35.0592 29.7121 34.9883 29.9927 34.9883 29.9927C33.4931 30.045 30.5369 30.6575 27.4025 33.2131C25.5863 34.6133 24.5891 35.6991 23.4668 38.8487C22.3446 41.9994 21.4193 43.3648 20.2971 44.0295C21.7392 45.1327 23.5377 45.1675 25.4435 44.5191C27.3483 43.8718 28.9332 44.4669 29.4678 44.8346C30.9099 45.78 33.7056 46.0597 35.8073 45.0098C36.8045 44.4843 38.3894 44.0905 39.0126 44.0556C40.6152 44.8825 44.7999 46.497 46.4733 45.7267C46.9182 45.272 45.4053 44.0284 45.0666 43.6966C45.5469 43.6096 46.1435 43.1972 46.9271 43.565C47.7107 43.9327 49.0366 44.8161 50.088 43.6792C51.1383 42.5412 52.6081 38.6474 56.7209 39.9987C58.4729 40.6155 59.9936 41.5414 61.6272 41.104C61.9548 41.0159 62.1164 40.6536 61.9548 40.3599C61.4999 39.5319 61.4136 38.8781 61.5143 37.9772C61.6084 37.133 61.5719 36.0886 61.2354 35.3716C61.1236 35.1344 60.8104 35.0594 60.609 35.2302C60.2692 35.5185 59.7534 35.5848 59.1624 35.4956C58.3744 35.377 56.4785 33.9812 54.9644 31.8988C53.4504 29.8154 51.0288 27.6319 50.3614 27.1989C49.9607 26.9628 49.2524 27.3827 48.8794 28.0127C48.5861 27.9474 48.0648 27.9735 47.7848 28.0779C47.0909 26.8703 45.7417 25.7019 45.3676 25.4397C45.5015 25.098 45.475 24.4551 45.475 24.4551C46.5142 24.6988 47.6066 25.1176 48.2884 26.1022C48.4633 26.3546 48.7543 26.5037 49.0642 26.4993C50.2684 26.4808 51.912 26.6473 52.742 28.3967C52.8715 28.6698 53.146 28.846 53.4515 28.8602C54.628 28.9178 56.0126 29.291 56.3988 30.7086C56.4619 30.9425 56.6523 31.122 56.8913 31.1808C58.7529 31.6377 63.6792 32.0348 65.6404 31.2156C63.1302 30.454 59.3373 29.0364 56.1055 27.1195C52.8737 25.2025 50.0869 23.6184 47.2027 22.6034C47.6299 21.8505 48.1014 21.1379 48.1821 20.2577C48.9082 19.6496 49.9729 18.7836 50.0161 16.8535C50.0471 15.4751 49.2812 14.4122 48.44 13.8214L48.4422 13.8257Z" fill="black"/>
<path d="M44.7202 11.0297C44.9681 10.724 45.4949 10.7055 45.7085 10.9242C46.2166 10.7142 47.2315 9.96132 47.507 9.62405C47.7848 9.94826 48.0781 10.4977 48.325 11.0438C47.6033 11.0493 46.7179 11.0699 46.5253 11.0754C46.6725 11.3506 47.113 11.6727 47.3599 11.6792C47.5546 11.6846 48.294 11.6933 48.6005 11.6977C48.7223 12.0056 48.8164 12.2776 48.8684 12.4604C47.6 12.6312 46.4025 12.369 45.921 12.0535C45.672 12.3069 45.2537 12.3418 44.9416 12.2025C44.5796 12.0404 44.407 11.4148 44.7191 11.0297H44.7202Z" fill="#CBCBCA"/>
<path d="M46.9647 9.10403C46.0859 8.29894 44.6493 8.44799 43.8491 9.13884C43.0478 9.82969 42.9504 11.0025 43.0301 11.7293C43.1995 11.7728 43.4042 11.8696 43.4042 11.8696C43.2482 11.1146 43.4485 10.0059 44.1767 9.36187C44.7965 8.81463 45.6056 8.83639 46.0394 9.13014C45.6299 9.26178 45.2204 9.66432 45.2381 10.0495C45.4695 10.0408 45.6654 10.1365 45.7318 10.2355C46.2187 9.96025 46.7267 9.47393 46.9647 9.10403Z" fill="#CBCBCA"/>
<path d="M42.3616 12.3951C42.5752 12.3168 43.0467 12.1068 43.0467 12.1068C44.3195 12.6149 45.4329 13.6647 45.8159 14.3469C45.6642 14.6352 45.4152 15.0997 45.3178 15.2575C44.3472 14.1728 43.4131 13.0783 42.3616 12.3962V12.3951Z" fill="#CBCBCA"/>
<path d="M46.4124 14.7124L47.0798 14.522C47.2336 15.0475 47.3875 15.9592 47.4406 16.2018C47.0134 16.0441 46.232 15.6307 46.0051 15.4468C46.1047 15.2368 46.2918 14.9409 46.4124 14.7113V14.7124Z" fill="#979797"/>
<path d="M48.295 15.5784C48.3615 16.0974 48.4954 17.4225 48.502 17.5019C48.315 17.5346 47.8546 17.4497 47.8546 17.4497L48.0482 18.5725C49.2303 17.8436 48.8363 15.8352 48.295 15.5795V15.5784Z" fill="#CBCBCA"/>
<path d="M46.7057 17.1407C46.325 16.983 45.1208 16.526 45.1208 16.526C44.8176 16.0887 44.2753 15.4675 44.2753 15.4675C44.4977 16.6142 45.3167 18.6704 45.8602 19.4755C46.4036 20.2806 46.6969 20.4644 47.009 20.6135C47.1252 20.508 47.196 20.3067 47.196 20.1413C47.1695 19.9488 46.7068 17.1418 46.7068 17.1418L46.7057 17.1407Z" fill="#979797"/>
<path d="M37.3048 12.815C38.8001 12.1329 40.6949 12.2428 41.6854 13.0772C42.8077 14.0227 43.288 15.7558 42.9139 17.094C42.6206 15.5969 40.4835 13.445 37.9567 14.0792C37.6291 13.6484 37.3978 13.2154 37.3048 12.814V12.815Z" fill="#CBCBCA"/>
<path d="M43.4474 25.4614C42.6815 23.799 40.5808 23.3432 39.4232 23.3083C38.2478 23.8338 37.6645 24.7216 37.6645 24.7216C39.5881 24.3365 40.8697 24.4061 41.5105 24.5116C42.1513 24.6172 43.1795 25.2688 43.4474 25.4614Z" fill="#CBCBCA"/>
<path d="M43.4031 26.3448C41.8802 25.4386 39.4541 25.1546 37.0779 25.7976C36.5566 26.4145 36.0896 27.9898 36.0364 28.239C36.5301 28.0943 37.4741 28.0072 37.4741 28.0072C37.1178 27.2283 37.8925 26.3427 38.2002 25.9815C39.4021 25.7715 41.1254 25.8901 42.1126 26.3361C41.5648 26.507 41.4452 27.0585 41.5382 27.6885C42.4192 27.6624 43.4075 27.7146 44.1291 27.794C43.9155 27.2685 43.6079 26.6604 43.4031 26.3459V26.3448Z" fill="#CBCBCA"/>
<path d="M41.9698 28.9091C42.8597 28.8221 44.7478 28.9091 45.1928 28.9614C45.9764 29.662 46.9559 30.7641 47.134 31.0089C46.7245 31.4985 46.0793 32.4918 46.0793 32.4918L45.5857 32.5048C44.0628 31.3364 42.5764 29.6294 41.971 28.9081L41.9698 28.9091Z" fill="#CBCBCA"/>
<path d="M47.8546 31.7846C48.3349 32.2176 48.9492 32.9139 49.1771 33.4383C48.4688 34.0029 47.2813 34.3837 47.2813 34.3837C47.0278 34.0954 46.667 33.4122 46.667 33.4122C47.0676 32.7953 47.5757 32.1251 47.8557 31.7846H47.8546Z" fill="#CBCBCA"/>
<path d="M43.8746 32.7562C42.9394 31.9424 41.3235 30.157 40.79 29.8546C40.2555 29.5521 39.5217 29.3422 39.1874 29.1452C39.9356 30.0384 42.3528 32.0729 43.1807 32.6898C43.3987 32.7464 43.6787 32.7681 43.8746 32.7551V32.7562Z" fill="#979797"/>
<path d="M41.6666 32.8388C40.7811 33.1805 39.111 33.2708 37.8438 32.7594C36.1227 32.0653 35.9457 30.689 36.1504 30.1407C36.6064 31.159 38.7181 32.5059 40.946 32.1066C41.1597 32.2579 41.6666 32.8388 41.6666 32.8388Z" fill="#AF2B24"/>
<path d="M46.4722 35.1388C46.1446 34.6731 45.631 33.8724 45.4307 33.6091C44.7633 33.5765 43.6809 33.6417 43.1807 33.6678C42.3329 34.7971 42.1126 36.4878 41.1154 38.5005C40.51 39.743 40.1979 40.1107 39.9666 40.4784C39.7353 40.8462 40.1448 41.0736 40.3318 41.1084C40.5189 41.1432 40.8841 41.1171 41.0302 40.9071C42.1248 38.7671 43.1807 36.2866 43.34 34.3435C43.62 33.9888 44.573 33.8049 45.0588 34.1509C44.4667 35.3194 42.6461 39.2969 41.8448 40.6449C41.9964 40.671 42.3793 40.7363 42.3793 40.7363C43.7861 38.7932 45.2503 36.9034 46.4722 35.1377V35.1388Z" fill="#CBCBCA"/>
<path d="M39.0535 41.9124C39.8813 42.6283 41.0368 42.477 41.7042 41.5512C41.8248 41.5512 42.0584 41.5969 42.0584 41.5969C42.1923 42.0103 42.5387 42.5815 42.5387 42.5815C42.0307 42.8371 41.7241 43.6248 41.35 44.0056C40.562 43.8348 39.1199 42.7719 38.6528 42.5292C38.8 42.2344 38.9461 42.0299 39.0535 41.9124Z" fill="#CBCBCA"/>
<path d="M44.6494 42.8643C45.371 42.7588 45.9044 42.3258 46.8662 42.5358C47.828 42.7457 48.5352 43.8087 49.2967 43.0351C50.0581 42.2605 51.7006 39.4775 53.757 39.1229C54.9456 38.9259 55.9074 38.952 57.3097 39.6353C58.712 40.3185 59.7269 40.8168 61.0893 40.5285C60.7152 40.0563 60.6046 39.5178 60.5415 39.0184C60.1773 39.5559 59.3428 39.5733 58.3888 39.3056C57.6495 39.0978 56.0004 38.2166 54.7453 37.7705C53.4902 37.3245 51.9717 37.2113 51.1704 38.0643C50.3691 38.9172 49.8257 41.5523 48.5485 41.8493C48.5219 40.4969 48.0947 40.2794 47.7472 39.4514C47.3997 38.6246 47.2392 37.3375 47.2669 36.7468C46.5054 37.64 46.5585 39.2676 46.4257 40.2652C46.2918 41.2629 45.7318 42.1419 44.6494 42.8643Z" fill="#AF2B24"/>
<path d="M47.4251 41.7481C47.1152 41.5642 46.4512 41.6143 45.7982 41.8014C45.5137 42.1844 45.1341 42.5401 44.6494 42.8643C45.371 42.7588 45.9044 42.3258 46.8662 42.5358C47.828 42.7457 48.5352 43.8087 49.2967 43.0351C50.0581 42.2605 51.7006 39.4775 53.757 39.1229C54.9456 38.9259 55.9074 38.952 57.3097 39.6353C58.712 40.3174 59.7269 40.8168 61.0893 40.5285C60.7152 40.0563 60.6046 39.5178 60.5415 39.0184C60.1773 39.5559 59.3428 39.5733 58.3888 39.3056C57.6495 39.0978 56.0004 38.2166 54.7453 37.7705C53.4902 37.3245 51.9717 37.2113 51.1704 38.0643C50.3691 38.9172 49.8257 41.5523 48.5485 41.8493C48.5485 41.8493 48.0715 42.1343 47.4251 41.7492V41.7481Z" fill="#E8CA1C"/>
<path d="M53.4371 36.5368C52.1953 36.2213 50.606 35.9852 49.1373 37.5736C49.311 36.7468 50.2142 35.4902 51.3807 35.6044C52.3159 35.7002 53.2146 36.3051 53.4371 36.5368Z" fill="#AF2B24"/>
<path d="M60.7197 36.0951C59.9892 36.6467 57.7989 36.4367 55.7868 34.1781C53.7747 31.9206 51.5611 28.883 50.4035 28.1998C49.6885 28.945 50.4721 30.0645 52.5727 32.3928C53.166 33.0499 53.6231 33.8626 53.7304 34.1955C52.9468 33.5308 52.1721 32.7431 51.4427 32.3046C50.7123 31.8673 49.7339 31.1318 49.5014 30.4932C49.341 31.1841 49.7372 32.6637 49.911 32.952C50.2186 33.2675 50.3337 33.6298 50.3116 33.7397C50.2828 33.8854 50.0327 34.1509 49.6575 34.3565C49.4439 34.8951 49.1904 34.9908 48.9226 36.0418C49.0831 35.8927 49.3321 35.6915 49.5014 35.5424C50.3205 34.5186 50.8196 34.2554 52.4399 34.3348C51.9319 34.5622 51.5224 34.8864 51.3985 35.105C52.057 34.8951 52.6491 34.7243 53.6507 34.9342C54.96 35.735 55.7602 37.3234 56.9091 37.7303C56.2815 37.0209 55.6141 35.735 55.3596 35.0387C56.5615 35.9841 58.671 37.2918 60.06 36.9513C60.0866 37.4681 59.5886 38.1589 59.4723 38.2732C59.9173 38.2209 60.4164 37.8358 60.6389 37.5203C60.7462 37.0916 60.7817 36.453 60.7186 36.094L60.7197 36.0951Z" fill="#AF2B24"/>
<path d="M35.2207 30.923C31.6769 31.01 27.7777 33.7941 26.1397 35.7535C24.5017 37.714 23.5045 42.8078 21.9019 43.8577C23.5045 44.5931 25.1071 43.2277 27.7954 43.3496C29.968 43.4725 30.2701 44.6976 32.6918 44.0676C35.1134 43.4377 36.7868 39.8322 37.1432 39.1142C35.8793 40.2696 33.9734 42.8426 31.0892 43.0003C33.368 41.4772 34.5611 40.1825 35.7011 39.2893C36.841 38.3961 37.9578 37.417 38.2522 37.1276C38.5599 37.8097 38.1315 39.3067 37.6114 39.8975C38.8133 39.4645 39.8548 37.8891 40.095 37.2462C40.3351 36.6032 40.5753 35.8677 40.3218 35.0539C39.0125 36.1702 36.1283 37.64 34.7526 38.0338C33.3769 38.4277 31.7211 39.137 31.0537 39.7136C31.481 38.3091 33.4576 37.2059 34.7802 36.576C36.1028 35.946 37.3048 35.0137 37.5317 34.7906C37.5848 35.1845 37.3048 35.723 37.0779 35.933C38.0928 35.7883 38.9871 35.067 39.3479 34.436C37.9323 34.3043 34.3486 33.6352 31.3924 35.8927C32.4604 34.1422 34.1527 33.2142 35.773 32.9694C34.9894 32.6365 33.3691 32.6713 32.6575 32.9172C33.3702 31.8673 34.6607 31.2983 35.2927 31.158C35.2661 31.0796 35.2218 30.9219 35.2218 30.9219L35.2207 30.923Z" fill="#AF2B24"/>
<path d="M31.0903 43.0003C30.2746 43.1124 28.9022 42.0788 27.9824 41.8754C27.0627 41.6719 25.6837 41.9276 24.8757 42.192C24.4065 42.3454 23.645 42.3204 23.0883 42.2725C22.7209 43.0003 22.3335 43.5748 21.903 43.8576C23.5056 44.5931 25.1082 43.2277 27.7965 43.3496C29.9691 43.4725 30.2713 44.6975 32.6929 44.0676C35.1145 43.4377 36.7879 39.8322 37.1443 39.1142C35.8804 40.2696 33.9745 42.8426 31.0903 43.0003Z" fill="#E8CA1C"/>
<path d="M43.0645 43.3322C42.7435 43.5508 42.3163 44.2776 42.3163 44.2776C42.9925 44.4876 44.5509 44.7236 44.863 44.7498C44.5154 44.295 43.3489 43.6379 43.0645 43.3322Z" fill="#CBCBCA"/>
<path d="M67.9934 22.0311C66.7383 23.922 66.6044 26.5733 69.6225 30.9839C69.1422 31.1155 68.4737 31.3255 68.4737 31.3255C66.497 28.5164 64.8413 24.7358 66.7106 21.8211C67.2186 21.8472 67.7521 21.9789 67.9923 22.0311H67.9934Z" fill="black"/>
<path d="M71.4122 26.2839C71.359 25.8248 71.2428 25.3907 70.8687 24.9708C69.1776 24.4105 67.2363 24.726 66.5058 24.9882C65.4732 26.5635 65.0283 29.1844 64.8811 31.0883C65.108 31.22 65.7621 31.3375 65.9624 31.3908C66.1229 29.303 66.7239 26.8747 67.1909 26.0479C68.3398 25.5887 70.343 25.7193 71.4111 26.2839H71.4122Z" fill="black"/>
<path d="M73.349 31.2722C73.2284 30.8522 73.1354 30.3398 72.8145 30.0384C70.985 29.5391 68.0731 30.4976 67.2186 31.3647C67.3658 31.9554 67.793 32.5331 67.793 32.5331C69.4621 31.3124 71.6789 31.0894 73.349 31.2733V31.2722Z" fill="black"/>
<path d="M67.7798 31.1242C66.124 31.0633 62.7495 30.293 61.7169 30.0656C61.646 30.2756 61.5652 30.9317 61.5652 30.9317C63.346 31.492 66.6664 31.8945 67.7089 31.9989C67.6912 31.7106 67.7798 31.1242 67.7798 31.1242Z" fill="black"/>
<path d="M46.9226 28.326C46.4113 27.5416 45.6664 26.8137 45.2204 26.4341C45.2204 26.4341 44.9437 26.7039 44.9039 26.7626C45.0378 26.94 45.175 27.6047 45.247 28.0605C45.3654 28.1411 45.5934 28.3304 45.8612 28.5654C46.1966 28.4511 46.5851 28.375 46.9237 28.326H46.9226Z" fill="#CBCBCA"/>
<path d="M43.9466 22.3107C47.4727 23.1158 51.3188 24.9707 54.1145 26.792C56.9102 28.6121 60.2393 30.2223 62.0201 30.7826C60.1685 30.8522 57.9516 30.5378 57.23 30.3148C56.7895 28.9233 55.3208 28.0834 53.5577 27.9779C52.5163 26.3372 50.8871 25.4179 49.0167 25.6931C48.1888 24.3669 45.371 23.2735 43.1807 23.2387C43.5016 22.9058 43.7684 22.6088 43.9466 22.3107Z" fill="#E8CA1C"/>
<path d="M46.0461 32.0642C46.2918 31.7161 46.5331 31.3385 46.7168 30.9556C46.1468 30.3169 45.5536 29.6957 44.926 29.1115C44.2885 29.0973 43.651 29.1028 43.0146 29.1289C43.8669 30.28 44.8408 31.2765 46.0472 32.0642H46.0461Z" fill="white"/>
<path d="M42.6549 35.4108C42.0407 37.1526 41.2803 38.8454 40.386 40.4654C40.3063 40.6101 40.5454 40.7711 40.6959 40.6982C40.8464 40.6253 40.9239 40.4621 40.9903 40.3098C41.4618 39.2186 41.9134 38.1187 42.3428 37.0111C42.5453 36.4889 42.7257 35.9645 42.656 35.4108H42.6549Z" fill="white"/>
<path d="M45.9542 35.4597C45.7959 35.1061 45.5757 34.7797 45.3056 34.4991C44.2841 36.4367 43.2094 38.4168 42.1879 40.3533C43.5005 38.7584 44.7788 37.1547 45.9542 35.4597Z" fill="white"/>
<path d="M41.6843 13.0772C40.6938 12.2428 38.8001 12.1318 37.3037 12.815C37.3967 13.2165 37.6291 13.6495 37.9556 14.0803C38.0773 14.0499 38.1969 14.0259 38.3164 14.0074C38.8355 13.5875 39.4077 13.297 40.1393 13.2045C40.7745 13.124 41.4331 13.1991 42.0329 13.421C41.9245 13.2981 41.8083 13.1828 41.6832 13.0772H41.6843Z" fill="white"/>
<path d="M30.6819 26.8246C29.5209 25.531 28.8159 23.7468 28.6986 21.8026C28.6034 20.2284 28.9221 18.6791 29.4932 17.948L34.6851 11.3017L34.8611 11.3071C36.1172 11.343 38.7934 12.0078 41.0224 13.6908C43.2515 15.3728 44.5951 17.7446 44.9548 18.9272L45.0046 19.0925L39.8127 25.7389C39.2417 26.47 37.8017 27.1728 36.2301 27.4883C34.2889 27.8778 32.3531 27.6689 30.7826 26.9008L30.7251 26.8725L30.683 26.8246H30.6819Z" fill="black"/>
<path d="M44.252 18.9718L39.2793 25.3363C38.8964 25.827 37.7409 26.5037 36.1084 26.8312C34.3376 27.1869 32.5789 27.0074 31.1501 26.3264C30.1119 25.1448 29.4822 23.5216 29.3737 21.7482C29.2741 20.1141 29.6415 18.8423 30.0245 18.3517L34.9972 11.9871C36.2268 12.0731 38.5953 12.7139 40.6019 14.2283C42.6085 15.7427 43.8492 17.8273 44.2509 18.9729L44.252 18.9718Z" fill="#CBCBCA"/>
<path d="M31.6215 25.6224C30.7062 24.603 30.175 23.1593 30.1241 21.5578C30.0831 20.273 30.3676 19.0109 30.8302 18.418L35.0835 12.9739L35.2595 12.9793C36.2501 13.0076 38.3596 13.5309 40.1138 14.8549C41.868 16.179 42.9272 18.0481 43.2105 18.9805L43.2603 19.1458L39.007 24.59C38.5433 25.1829 37.3768 25.778 36.1029 26.0718C34.5157 26.4362 32.9596 26.3046 31.7212 25.6986L31.6636 25.6703L31.6215 25.6224ZM39.6943 15.3913C38.1615 14.2337 36.3574 13.7354 35.3967 13.6593L31.3637 18.8216C31.0549 19.2176 30.7616 20.273 30.8014 21.523C30.828 22.3499 31.0316 23.9089 32.0908 25.1242C33.5584 25.8172 35.1433 25.6083 35.9634 25.419C37.203 25.1339 38.1637 24.5845 38.4736 24.1885L42.5066 19.0262C42.1835 18.133 41.2272 16.5489 39.6943 15.3913Z" fill="black"/>
<path d="M31.326 19.9324C31.2497 20.2686 31.1633 20.8159 31.1855 21.51C31.2098 22.2694 31.3913 23.6957 32.331 24.8163C32.9342 25.0872 33.6215 25.2242 34.373 25.2242C34.9906 25.2242 35.5318 25.1296 35.876 25.0502C36.5633 24.8924 37.079 24.6683 37.39 24.5095C37.929 24.2331 38.1227 24.0166 38.1692 23.9568L41.1198 20.1794C39.7961 18.975 38.1393 18.121 36.3707 17.7707C35.1588 17.5302 33.9026 17.5291 32.6874 17.7457L31.6691 19.049C31.6226 19.1089 31.46 19.3493 31.3271 19.9314L31.326 19.9324Z" fill="black"/>
<path d="M40.603 14.2272C38.5964 12.7128 36.2279 12.072 34.9983 11.986L30.0256 18.3506C29.6426 18.8412 29.2752 20.113 29.3748 21.7471C29.4822 23.5205 30.113 25.1437 31.1512 26.3253L31.45 26.0054C31.45 26.0054 28.755 23.3432 30.1197 18.826C31.4157 17.0733 35.1189 12.3679 35.1189 12.3679C35.1189 12.3679 40.9727 12.5572 43.8746 18.9272L44.252 18.9707C43.8503 17.8251 42.6096 15.7406 40.603 14.2261V14.2272Z" fill="white"/>
<path d="M46.9647 9.10403C46.0859 8.29894 44.6504 8.44799 43.8491 9.13884C43.0478 9.82969 42.9504 11.0025 43.0301 11.7293C43.1995 11.7728 43.4042 11.8696 43.4042 11.8696C43.2482 11.1146 43.4485 10.0059 44.1767 9.36187C44.7965 8.81463 45.6056 8.83639 46.0394 9.13014C46.3582 9.22044 46.5552 9.35099 46.6758 9.47067C46.792 9.34338 46.8917 9.21826 46.9658 9.10403H46.9647Z" fill="white"/>
<path d="M43.8657 13.1012C43.9067 13.0696 44.138 12.9412 44.3383 12.827C43.9465 12.5441 43.5071 12.2895 43.0467 12.1057C43.0467 12.1057 42.5752 12.3157 42.3616 12.394C42.7756 12.6627 43.1718 12.9967 43.5592 13.3677C43.6566 13.2731 43.7584 13.1838 43.8657 13.1001V13.1012Z" fill="white"/>
<path d="M47.6874 9.86341C47.6266 9.77529 47.5668 9.69478 47.507 9.62515C47.2314 9.96242 46.2165 10.7153 45.7085 10.9253C45.4949 10.7066 44.9681 10.724 44.7202 11.0308C44.5154 11.2843 44.5198 11.6422 44.6504 11.9033C44.7312 11.7401 44.8574 11.5976 45.0135 11.4997C45.2724 11.3376 45.6078 11.3006 45.8967 11.4018C45.8922 11.3322 45.8756 11.2658 45.848 11.2016C46.5264 10.8632 47.1506 10.4009 47.6874 9.8645V9.86341Z" fill="white"/>
<path d="M33.1566 17.2191L35.5827 14.0803C35.5827 14.0803 39.7696 14.4959 42.0351 19.0153L41.6677 19.4918C39.836 17.5879 35.3735 16.4836 33.1566 17.2202V17.2191Z" fill="white"/>
<path d="M34.0443 31.3571C32.8578 32.0838 31.4356 33.1598 30.5491 34.2227C30.4351 34.3598 30.3178 34.5284 30.3653 34.6982C30.5668 34.7308 30.756 34.6079 30.9254 34.4958C31.6913 33.9866 32.5036 33.6069 33.3702 33.2882C31.8263 34.2771 30.4771 35.5587 29.4202 37.0427C29.2497 37.2821 29.1224 37.6041 29.1767 37.8924C31.0859 36.3682 33.4079 35.364 35.8084 34.8396C35.0249 35.8634 33.7377 36.354 32.6176 37.009C30.8988 38.0132 29.5165 39.5961 28.6034 41.3445C28.0201 41.0747 27.3793 40.9256 26.7351 40.9104C26.5237 40.906 26.2482 40.9169 26.0589 41.0083C26.4396 40.2206 26.8204 39.434 27.2011 38.6463C27.2752 38.494 27.3505 38.3211 27.2963 38.1611C26.8912 38.3395 26.6389 38.7356 26.4109 39.1098C26.0357 39.7256 25.6605 40.3414 25.2842 40.9572C25.189 41.1138 25.0905 41.2738 24.9521 41.3956C24.8138 41.5175 24.64 41.5621 24.4563 41.5305C25.0484 39.1588 26.0467 36.8131 27.8098 35.092C29.045 33.8865 31.6713 32.1328 34.0443 31.3571Z" fill="#DC3226"/>
<path d="M37.2672 37.3984C35.8527 37.9838 34.3929 38.4646 33.0105 39.1207C31.6282 39.7767 30.3078 40.6275 29.3637 41.8166C29.7821 42.2627 30.4395 42.4824 31.056 42.452C33.1101 40.7842 35.1875 39.0347 37.2672 37.3984Z" fill="#DC3226"/>
<path d="M54.8992 34.4262C55.4481 34.8461 56.0015 35.1616 56.6545 35.3977C55.7215 34.535 54.8261 33.6864 54.0558 32.6789C53.1483 31.4909 52.0979 30.4399 50.9901 29.4292C51.8832 31.1982 53.5279 32.5505 54.244 34.3946C54.5229 34.3359 54.6734 34.2532 54.8981 34.4251L54.8992 34.4262Z" fill="#DC3226"/>
<path d="M51.5213 33.0358C51.9031 33.2544 52.2838 33.472 52.6657 33.6907C52.8605 33.8017 53.0641 33.9224 53.1759 34.1139C52.7243 34.0171 52.2694 33.9203 51.8079 33.905C51.3464 33.8898 50.8716 33.9583 50.4665 34.177C50.6425 33.8147 50.8196 33.3904 50.6447 33.0271C50.5639 32.8584 50.4167 32.7311 50.3105 32.5766C50.2064 32.4265 50.1068 32.2165 50.15 32.0403C50.5894 32.4124 51.0133 32.7442 51.5224 33.0358H51.5213Z" fill="#DC3226"/>
<path d="M37.6036 7.92794C37.5472 8.39576 37.4122 8.89404 36.9872 9.11163C38.5732 9.1508 39.2981 6.95095 40.9383 7.21968C40.3927 7.46882 40.0728 8.0215 39.9544 8.60138C41.0634 7.65812 43.0368 7.43509 43.9045 8.78198C44.0041 8.62314 44.2376 8.39467 44.3959 8.2924C44.6682 6.79211 44.314 4.9415 42.8387 4.17885C42.6273 4.07114 42.3871 3.99281 42.1646 4.07658C42.6018 4.49326 42.8243 5.00569 42.8276 5.60515C42.2178 4.10813 40.4857 3.29325 38.9052 3.70885C39.5172 3.96125 39.9766 4.40514 40.2466 5.00134C38.8255 3.40857 36.0774 3.97649 34.7006 5.35601C35.0636 5.17432 35.4864 5.28747 35.8184 5.52029C33.6857 5.72374 32.207 8.13029 33.1821 10.0505C33.6835 8.80483 35.7974 9.82968 37.6036 7.92685V7.92794Z" fill="black"/>
</svg>
