<svg width="86" height="87" viewBox="0 0 86 87" fill="none" xmlns="http://www.w3.org/2000/svg">
<g clip-path="url(#clip0_60_498)">
<path d="M49.7768 46.798C50.1234 47.1452 50.574 47.3188 50.99 47.3188C51.4059 47.3188 51.8912 47.1452 52.2032 46.798L56.2242 42.7709L57.6107 44.1596C57.9573 44.5067 58.408 44.6803 58.8239 44.6803C59.2399 44.6803 59.7252 44.5067 60.0371 44.1596L61.4237 42.7709L64.2314 45.583L61.6317 48.1867C60.1758 49.6448 60.1758 52.0055 61.6317 53.4636L64.0581 55.8938C64.786 56.6229 65.7566 57.0047 66.6925 57.0047C67.6284 57.0047 68.599 56.6576 69.3269 55.8938L84.8562 40.3407C86.312 38.8826 86.312 36.5219 84.8562 35.0638L82.4297 32.6336C80.9739 31.1755 78.6167 31.1755 77.1262 32.6336L74.5265 35.2374L71.7187 32.4253L73.1053 31.0367C73.7985 30.3423 73.7985 29.2661 73.1053 28.5718L57.3681 12.8104C56.6748 12.1161 55.6002 12.1161 54.907 12.8104L53.5204 14.1991L50.7127 11.387L53.3124 8.78327C54.7683 7.32517 54.7683 4.96444 53.3124 3.47162L50.886 1.04145C49.4301 -0.416649 47.073 -0.416649 45.6171 1.04145L30.0879 16.5945C28.6321 18.0526 28.6321 20.4134 30.0879 21.9062L32.5144 24.3363C33.2423 25.0654 34.2129 25.4126 35.1488 25.4126C36.0847 25.4126 37.0553 25.0654 37.7832 24.3363L40.383 21.7326L43.1907 24.5446L41.8042 25.9333C41.1109 26.6276 41.1109 27.7039 41.8042 28.3982L43.1907 29.7869L39.1698 33.814C38.4765 34.5083 38.4765 35.5846 39.1698 36.2789L40.487 37.5981L2.94645 70.8567C1.14395 72.4537 0.0693842 74.745 5.72859e-05 77.1404C-0.0692696 79.5359 0.866643 81.8619 2.53049 83.563C4.15967 85.1947 6.37813 86.132 8.70058 86.132C8.80457 86.132 8.8739 86.132 8.97789 86.132C11.3697 86.0626 13.6575 84.9864 15.252 83.1811L48.4595 45.4788L49.7768 46.798ZM79.6566 35.0985C79.6566 35.0985 79.7953 35.0291 79.8646 35.0291C79.934 35.0291 80.0033 35.0291 80.0726 35.0985L82.499 37.5287C82.499 37.5287 82.603 37.8064 82.499 37.9106L66.9698 53.4636C66.9698 53.4636 66.6925 53.5678 66.5885 53.4636L64.1621 51.0335C64.1621 51.0335 64.0581 50.7557 64.1621 50.6516L67.9751 46.8328L75.8437 38.9521L79.6566 35.1332V35.0985ZM72.1693 37.7023L66.7618 43.1181L63.9541 40.306L69.3616 34.8902L72.1693 37.7023ZM69.5349 29.8216L68.1484 31.2102L60.2798 39.0909L58.8932 40.4796L57.5067 39.0909L47.0037 28.5718L45.6171 27.1831L47.0037 25.7944L54.8723 17.9138L56.2588 16.5251L69.5349 29.8216ZM35.4608 21.9062C35.4608 21.9062 35.1835 22.0103 35.0795 21.9062L32.653 19.476C32.653 19.476 32.549 19.1983 32.653 19.0941L48.1822 3.54105C48.1822 3.54105 48.3209 3.47162 48.3902 3.47162C48.4596 3.47162 48.5289 3.47162 48.5982 3.54105L51.0246 5.97122C51.0246 5.97122 51.1286 6.24895 51.0246 6.3531L47.2117 10.1719L39.3431 18.0526L35.5301 21.8715L35.4608 21.9062ZM42.9481 19.3024L48.3556 13.8866L51.1633 16.6987L45.7558 22.1145L42.9481 19.3024ZM42.9481 35.0638L45.7558 32.2518L53.7977 40.306L50.99 43.1181L50.7473 42.8751L43.1907 35.3068L42.9481 35.0638ZM12.6176 80.8551C11.647 81.966 10.3298 82.5909 8.83924 82.6256C7.41803 82.6604 5.99683 82.1396 4.99159 81.0981C3.98635 80.0566 3.39707 78.7027 3.4664 77.2446C3.50107 75.7865 4.12501 74.4325 5.23424 73.4604L43.0521 40.063L45.9984 43.0139L12.6176 80.8551Z" fill="#484751"/>
<path d="M82.3257 76.8974V73.877C82.3257 71.551 80.4192 69.6416 78.0967 69.6416H55.3575C53.0351 69.6416 51.1286 71.551 51.1286 73.877V76.8974C49.1181 77.6264 47.6622 79.5359 47.6622 81.7924C47.6622 84.6739 49.9847 86.9999 52.8617 86.9999H80.5925C83.4696 86.9999 85.792 84.6739 85.792 81.7924C85.792 79.5359 84.3362 77.6264 82.3257 76.8974ZM54.5949 73.877C54.5949 73.4604 54.9416 73.1133 55.3575 73.1133H78.0967C78.5127 73.1133 78.8593 73.4604 78.8593 73.877V76.5849H54.5949V73.877ZM80.5925 83.5283H52.8617C51.8912 83.5283 51.1286 82.7645 51.1286 81.7924C51.1286 80.8204 51.8912 80.0566 52.8617 80.0566H80.5925C81.5631 80.0566 82.3257 80.8204 82.3257 81.7924C82.3257 82.7645 81.5631 83.5283 80.5925 83.5283Z" fill="#484751"/>
</g>
<defs>
<clipPath id="clip0_60_498">
<rect width="86" height="87" fill="white"/>
</clipPath>
</defs>
</svg>
