<svg width="90" height="92" viewBox="0 0 90 92" fill="none" xmlns="http://www.w3.org/2000/svg">
<g clip-path="url(#clip0_57_98)">
<path d="M89.2116 63.3993C92.9209 46.7433 83.1874 30.0542 67.4712 26.1231C51.7549 22.1919 36.0073 32.5074 32.298 49.1633C28.5886 65.8192 38.3221 82.5084 54.0383 86.4395C69.7546 90.3707 85.5022 80.0552 89.2116 63.3993Z" fill="#C5E1F9"/>
<path d="M47.2568 55.8454L56.6465 65.7774L75.6616 45.2219" stroke="#0561FC" stroke-width="2"/>
<path d="M20.3202 18.7497L17.5287 19.691C14.9184 21.2471 13.142 24.0903 12.7976 27.3369L10.5317 46.586C10.3686 48.1036 10.6949 49.6405 11.4743 50.9084L15.7704 49.2947L15.4079 87.5047C15.3716 89.9637 17.1662 91.9808 19.4139 91.9808C21.426 91.9808 23.1118 90.3479 23.3837 88.1771L26.5378 58.3237L26.9909 33.1769L20.3021 18.7305L20.3202 18.7497Z" fill="#0561FC"/>
<path d="M32.0121 18.7497L34.8036 19.691C37.4139 21.2471 39.1903 24.0903 39.5347 27.3369L40.9305 40.0735C41.0937 41.5912 40.7674 43.128 39.9879 44.396L36.5801 49.2947L36.9426 87.5047C36.9788 89.9637 35.1843 91.9808 32.9366 91.9808C30.9245 91.9808 29.2387 90.3479 28.9668 88.1771L25.8127 58.3237L25.3595 33.1769L32.0483 18.7305L32.0121 18.7497Z" fill="#0561FC"/>
<path d="M24.6707 22.7456L24.2538 32.5046H28.2961L27.8792 22.7456C27.8792 22.7456 28.5499 22.3229 28.6224 21.9963C28.7855 21.2087 27.8248 19.1724 27.8248 19.1724H24.7432C24.7432 19.1724 23.7825 21.2087 23.9456 21.9963C24.0181 22.3229 24.6888 22.7456 24.6888 22.7456H24.6707Z" fill="#0561FC"/>
<path d="M26.1752 16.7709C22.5317 16.7709 19.577 13.6396 19.577 9.77824V6.99269C19.577 3.13134 22.5317 0 26.1752 0C29.8187 0 32.7734 3.13134 32.7734 6.99269V9.77824C32.7734 13.6396 29.8187 16.7709 26.1752 16.7709Z" fill="#0561FC"/>
<path d="M25.3233 48.6799H5.3293C4.29815 48.6799 3.46223 49.5658 3.46223 50.6586V65.2203C3.46223 66.3131 4.29815 67.199 5.3293 67.199H25.3233C26.3544 67.199 27.1903 66.3131 27.1903 65.2203V50.6586C27.1903 49.5658 26.3544 48.6799 25.3233 48.6799Z" fill="#7EB3FF"/>
<path d="M21.861 48.6799H1.86707C0.835915 48.6799 0 49.5658 0 50.6586V65.2203C0 66.3131 0.835915 67.199 1.86707 67.199H21.861C22.8922 67.199 23.7281 66.3131 23.7281 65.2203V50.6586C23.7281 49.5658 22.8922 48.6799 21.861 48.6799Z" fill="#9AC7F7"/>
</g>
<defs>
<clipPath id="clip0_57_98">
<rect width="90" height="92" fill="white"/>
</clipPath>
</defs>
</svg>
